<svg width="15" height="21" viewBox="0 0 15 21" fill="none" xmlns="http://www.w3.org/2000/svg">
<path d="M8.5 1C8.5 0.447715 8.05228 2.41411e-08 7.5 0C6.94772 -2.41411e-08 6.5 0.447715 6.5 1L8.5 1ZM6.79289 20.7071C7.18342 21.0976 7.81658 21.0976 8.20711 20.7071L14.5711 14.3431C14.9616 13.9526 14.9616 13.3195 14.5711 12.9289C14.1805 12.5384 13.5474 12.5384 13.1569 12.9289L7.5 18.5858L1.84315 12.9289C1.45262 12.5384 0.819456 12.5384 0.428932 12.9289C0.0384073 13.3195 0.0384072 13.9526 0.428932 14.3431L6.79289 20.7071ZM6.5 1L6.5 20L8.5 20L8.5 1L6.5 1Z" fill="#183428"/>
</svg>
