<svg width="131" height="131" viewBox="0 0 131 131" fill="none" xmlns="http://www.w3.org/2000/svg">
<g clip-path="url(#clip0_518_1584)">
<path d="M65.4952 131C29.379 131 0 101.611 0 65.4952C0 29.379 29.379 0 65.4952 0C101.611 0 130.99 29.379 130.99 65.4952C130.99 101.611 101.611 130.99 65.4952 130.99V131ZM65.4952 1.90587C30.4368 1.90587 1.90587 30.4368 1.90587 65.4952C1.90587 100.554 30.4368 129.085 65.4952 129.085C100.554 129.085 129.085 100.554 129.085 65.4952C129.085 30.4368 100.563 1.90587 65.4952 1.90587Z" fill="#183428"/>
<path d="M88.423 23.7567C88.0609 24.5667 87.4224 25.1004 86.5076 25.3672C85.5928 25.6245 84.4969 25.472 83.2104 24.9003C81.6286 24.1951 80.8186 23.3946 80.7709 22.5084C80.7519 22.2702 80.79 22.0319 80.9043 21.7937C81.1426 21.26 81.5237 21.0409 82.0478 21.1457C81.9144 21.8318 82.0002 22.4607 82.3051 23.042C82.6196 23.6233 83.1342 24.0712 83.8489 24.3952C84.5731 24.7192 85.2211 24.805 85.8119 24.6716C86.4028 24.5381 86.8221 24.1856 87.0698 23.6233C87.3176 23.0611 87.3271 22.4989 87.0984 21.9366C86.8697 21.3839 86.2979 20.6883 85.4022 19.8688C84.5064 19.0492 83.9156 18.3059 83.6297 17.6484C83.3534 17.0004 83.3724 16.3334 83.6678 15.6663C84.0585 14.7991 84.6779 14.2369 85.5356 13.9892C86.3932 13.7319 87.3748 13.8557 88.4706 14.3417C88.9947 14.5704 89.5189 14.8754 90.043 15.247C90.5671 15.6187 90.9483 15.9331 91.196 16.2095L90.1573 17.191C90.0334 17.3149 89.9096 17.353 89.7952 17.3054C89.6809 17.2577 89.6141 17.0957 89.5951 16.8194C89.5284 15.9998 89.09 15.4186 88.2896 15.0564C87.4891 14.6943 86.822 14.5895 86.2598 14.742C85.7071 14.8944 85.3069 15.2375 85.0686 15.7807C84.8304 16.3143 84.8209 16.8289 85.0305 17.3054C85.2402 17.7818 85.7357 18.3822 86.5266 19.1064C87.3176 19.8306 87.8798 20.4501 88.2229 20.9932C88.5659 21.5269 88.7374 21.9938 88.747 22.394C88.747 22.7943 88.6422 23.2517 88.4039 23.7758L88.423 23.7567Z" fill="#183428"/>
<path d="M92.2362 27.8926L97.5822 20.5932C96.9532 20.1358 96.391 19.7355 95.905 19.4115C95.4095 19.0875 94.9235 19.078 94.4279 19.3925C94.2755 19.5068 94.1611 19.5735 94.0658 19.6116C93.8085 19.7165 93.5703 19.6974 93.3607 19.5449L93.3035 19.4973L94.6662 17.6105L102.347 23.2328L100.956 25.1005L100.917 25.072C100.736 24.9385 100.632 24.7956 100.622 24.6336C100.622 24.4811 100.66 24.2715 100.755 24.0237C100.946 23.5091 100.794 23.0422 100.279 22.6324C99.7644 22.2227 99.2117 21.7939 98.6209 21.3555L93.2749 28.655C93.0748 28.9218 92.9795 29.1219 92.9699 29.2553C92.9699 29.3888 93.0557 29.5793 93.2368 29.808C93.5131 30.1797 93.5608 30.5037 93.3702 30.761L90.1874 28.4358C90.378 28.1785 90.6924 28.1213 91.1403 28.2738C91.4167 28.3691 91.6168 28.3977 91.7502 28.3501C91.8836 28.3024 92.0456 28.1499 92.2267 27.8831L92.2362 27.8926Z" fill="#183428"/>
<path d="M100.688 29.179C102.127 27.9688 103.537 27.4256 104.928 27.5304C106.32 27.6352 107.52 28.3023 108.53 29.5125C109.55 30.7227 109.941 32.0187 109.703 33.41C109.464 34.8013 108.673 36.0687 107.33 37.2027C105.119 39.0609 103.013 39.4421 101.002 38.3367C100.43 38.0127 99.9064 37.5743 99.4299 37.0121C98.3531 35.7352 97.9338 34.4106 98.172 33.0384C98.4103 31.6661 99.2489 30.3797 100.678 29.1695L100.688 29.179ZM106.415 36.1259C107.416 35.2873 108.092 34.4487 108.445 33.6006C106.491 33.3243 104.986 33.1813 103.937 33.1623C102.889 33.1527 101.317 33.229 99.2298 33.3814C98.9058 34.4964 99.144 35.5446 99.954 36.5071C100.764 37.4695 101.707 37.9269 102.794 37.8698C103.88 37.8126 105.09 37.2313 106.415 36.1164V36.1259ZM107.94 29.9509C107.177 29.0456 106.234 28.6168 105.109 28.6549C103.985 28.7025 102.794 29.2552 101.536 30.313C100.602 31.1039 99.935 31.8758 99.5347 32.6381C100.878 32.4761 102.232 32.4094 103.566 32.419C104.452 32.419 105.386 32.4761 106.367 32.6096C107.358 32.743 108.121 32.8573 108.664 32.9717C108.94 31.8567 108.692 30.8466 107.93 29.9413L107.94 29.9509Z" fill="#183428"/>
<path d="M106.624 44.5402L114.743 40.5474C114.4 39.8517 114.085 39.2419 113.799 38.7177C113.513 38.2032 113.085 37.9649 112.503 38.0221C112.322 38.0507 112.179 38.0602 112.084 38.0507C111.808 38.0316 111.607 37.8982 111.493 37.66L111.455 37.5933L113.542 36.545L117.744 45.0833L115.648 46.103L115.629 46.0649C115.524 45.8552 115.505 45.6837 115.572 45.5408C115.638 45.3978 115.772 45.2358 115.972 45.0643C116.382 44.7022 116.458 44.2162 116.191 43.6063C115.924 43.0059 115.638 42.3675 115.314 41.7004L107.195 45.6932C106.9 45.8362 106.719 45.9696 106.652 46.0935C106.586 46.2173 106.576 46.4175 106.633 46.7129C106.709 47.1798 106.605 47.4752 106.309 47.6182L104.565 44.0828C104.851 43.9398 105.156 44.0446 105.48 44.3782C105.68 44.5973 105.842 44.7117 105.985 44.7308C106.128 44.7498 106.338 44.6926 106.624 44.5402Z" fill="#183428"/>
<path d="M110.303 54.4415L119.118 52.4022C118.947 51.6399 118.775 50.9728 118.623 50.4106C118.47 49.8484 118.098 49.5149 117.517 49.4386C117.327 49.4196 117.193 49.4005 117.098 49.3719C116.831 49.2861 116.669 49.1146 116.612 48.8573L116.593 48.7811L118.861 48.2379L121.005 57.51L118.727 58.0246V57.9769C118.661 57.7577 118.689 57.5767 118.775 57.4528C118.87 57.3289 119.042 57.205 119.28 57.0812C119.766 56.8143 119.947 56.3665 119.823 55.7185C119.709 55.0705 119.566 54.3843 119.404 53.6696L110.589 55.7089C110.265 55.7852 110.056 55.8709 109.97 55.9662C109.875 56.0615 109.827 56.2616 109.808 56.557C109.779 57.024 109.598 57.2908 109.293 57.367L108.407 53.5267C108.722 53.4505 108.998 53.622 109.227 54.0222C109.37 54.2795 109.503 54.432 109.636 54.4796C109.77 54.5368 109.989 54.5178 110.303 54.4415Z" fill="#183428"/>
<path d="M120.718 63.2275L116.211 63.2751C116.22 63.4371 116.23 63.8564 116.239 64.5616L116.258 66.1911C116.258 66.8582 116.334 67.3442 116.468 67.6586H116.201C115.925 67.6586 115.715 67.6205 115.553 67.5157C115.391 67.4109 115.315 67.2203 115.305 66.9439C115.296 66.6676 115.334 66.2673 115.41 65.7527C115.486 65.2286 115.524 64.7045 115.544 64.1613V63.2942L111.799 63.3323C111.379 63.3323 111.074 63.4181 110.893 63.5896C110.712 63.7516 110.626 64.0756 110.636 64.5425C110.655 66.01 110.712 66.9249 110.807 67.2679C110.903 67.611 111.017 67.8587 111.141 68.0017C111.265 68.1446 111.37 68.2494 111.455 68.3161C111.541 68.3733 111.665 68.44 111.827 68.5163C112.132 68.6497 112.284 68.8593 112.294 69.1357L110.055 69.1643L109.969 60.9214C110.302 60.9214 110.541 61.112 110.665 61.4931C110.75 61.7504 110.846 61.9124 110.941 61.9601C111.046 62.0172 111.274 62.0458 111.617 62.0458L119.708 61.9601C120.06 61.9601 120.289 61.9219 120.384 61.8648C120.48 61.7981 120.575 61.6456 120.651 61.3883C120.775 60.9976 121.004 60.807 121.328 60.7975L121.414 68.7831L119.346 68.8021C119.346 68.5258 119.422 68.3161 119.584 68.1827C119.641 68.1351 119.746 68.0779 119.898 67.9921C120.384 67.7444 120.642 67.1059 120.67 66.0767C120.699 65.0476 120.708 64.0946 120.708 63.237L120.718 63.2275Z" fill="#183428"/>
<path d="M110.788 74.4339L119.641 76.3112C119.803 75.5489 119.927 74.8723 120.032 74.291C120.127 73.7097 119.937 73.2618 119.441 72.9378C119.279 72.8425 119.165 72.7663 119.088 72.6996C118.888 72.509 118.812 72.2898 118.86 72.023L118.879 71.9468L121.166 72.4137L119.193 81.7239L116.916 81.2284V81.1807C116.973 80.952 117.068 80.8091 117.202 80.7328C117.345 80.6661 117.545 80.6185 117.811 80.609C118.364 80.5708 118.717 80.2373 118.888 79.5988C119.06 78.9604 119.212 78.2838 119.374 77.5596L110.522 75.6823C110.198 75.6156 109.969 75.606 109.845 75.6537C109.721 75.7013 109.588 75.8633 109.445 76.1206C109.216 76.5304 108.949 76.7019 108.635 76.6352L109.454 72.7758C109.769 72.8425 109.95 73.1094 109.988 73.5763C110.007 73.8717 110.074 74.0623 110.169 74.1671C110.264 74.2719 110.474 74.3577 110.788 74.4149V74.4339Z" fill="#183428"/>
<path d="M106.291 86.3552C106.101 86.2313 105.891 86.2599 105.681 86.4409C105.367 86.6982 105.071 86.7459 104.795 86.5743L106.348 84.0776C106.634 84.2587 106.73 84.5446 106.625 84.9353C106.568 85.2307 106.653 85.5452 106.901 85.8787L113.343 94.3884L112.876 95.1412C112.733 95.3794 112.504 95.4652 112.199 95.408L102.175 93.5022C101.765 93.4355 101.441 93.4926 101.203 93.6737C100.888 93.931 100.593 93.9786 100.316 93.8071L102.213 90.7482C102.499 90.9292 102.594 91.2151 102.489 91.6058C102.422 91.8726 102.489 92.0632 102.689 92.1871C102.794 92.2538 102.937 92.3015 103.127 92.3301L105.481 92.7779L108.064 88.6136L106.615 86.6982C106.501 86.5457 106.396 86.4314 106.291 86.3742V86.3552ZM112.171 94.0263L108.502 89.1854L106.205 92.8923L112.171 94.0168V94.0263Z" fill="#183428"/>
<path d="M99.2869 96.9517C99.0296 96.704 98.8486 96.561 98.7437 96.5324C98.6389 96.5038 98.4578 96.5515 98.2101 96.6754C97.848 96.8659 97.5526 96.8374 97.3143 96.6087L99.8301 94.0739C100.068 94.3121 100.087 94.6075 99.9063 94.9601C99.7824 95.1983 99.7348 95.3794 99.7634 95.4937C99.792 95.6081 99.9349 95.7891 100.183 96.0369L105.929 101.745C106.186 101.993 106.367 102.136 106.472 102.164C106.586 102.193 106.758 102.145 107.006 102.021C107.368 101.84 107.673 101.859 107.901 102.098L102.27 107.768L100.802 106.31C100.993 106.119 101.202 106.024 101.412 106.043C101.488 106.052 101.603 106.081 101.765 106.128C102.289 106.3 102.927 106.033 103.68 105.328C104.433 104.623 105.119 103.975 105.729 103.365L102.308 99.963C102.203 100.087 101.907 100.392 101.412 100.887L100.268 102.04C99.8015 102.517 99.5061 102.908 99.3822 103.232L99.1916 103.041C99.001 102.85 98.8771 102.66 98.839 102.469C98.8009 102.279 98.8771 102.088 99.0677 101.888C99.2678 101.697 99.5728 101.45 100.002 101.135C100.43 100.821 100.831 100.478 101.221 100.106L101.85 99.4961L99.2774 96.9422L99.2869 96.9517Z" fill="#183428"/>
<path d="M89.7576 115.277C90.9393 114.676 91.6635 113.828 91.9398 112.713C92.2067 111.598 91.9684 110.283 91.2061 108.768C90.4437 107.253 89.5099 106.29 88.3854 105.871C87.2609 105.452 86.1269 105.528 84.9739 106.109C84.1353 106.529 83.5731 106.986 83.2872 107.472C83.0013 107.958 82.8393 108.501 82.8107 109.111C82.4772 109.025 82.239 108.844 82.1055 108.587C81.9054 108.196 82.0103 107.72 82.4105 107.148C82.8107 106.576 83.5635 106.014 84.6689 105.452C86.327 104.613 87.8327 104.442 89.1858 104.928C90.539 105.404 91.6349 106.481 92.4735 108.13C93.3121 109.788 93.5026 111.303 93.0452 112.694C92.5878 114.085 91.6063 115.162 90.0816 115.925C89.386 116.277 88.6903 116.544 87.9661 116.725C87.2419 116.906 86.651 117.011 86.165 117.03L86.0316 115.639C86.003 115.429 86.0507 115.296 86.1746 115.229C86.2699 115.181 86.4319 115.229 86.6606 115.372C87.0894 115.648 87.5468 115.782 88.0423 115.772C88.5379 115.772 89.1001 115.601 89.7386 115.277H89.7576Z" fill="#183428"/>
<path d="M79.5417 109.121C79.494 108.902 79.332 108.768 79.0557 108.749C78.6459 108.711 78.4077 108.53 78.3314 108.206L81.1998 107.539C81.276 107.863 81.1426 108.13 80.79 108.339C80.5422 108.501 80.3802 108.787 80.3135 109.207L78.8365 119.775L77.9693 119.975C77.693 120.041 77.4738 119.937 77.3023 119.679L71.5751 111.236C71.3369 110.893 71.0605 110.703 70.7651 110.674C70.3554 110.636 70.1171 110.455 70.0409 110.131L73.5477 109.311C73.6239 109.635 73.4905 109.902 73.1379 110.112C72.8997 110.245 72.8139 110.436 72.8616 110.665C72.8902 110.788 72.9569 110.922 73.0712 111.084L74.4244 113.066L79.1986 111.961L79.5321 109.588C79.5607 109.397 79.5607 109.245 79.5321 109.121H79.5417ZM78.2647 118.698L79.1033 112.685L74.8532 113.676L78.2647 118.698Z" fill="#183428"/>
<path d="M61.0458 118.126C61.0553 117.411 61.3126 116.821 61.7986 116.373C62.2846 115.925 62.9231 115.61 63.7045 115.448C62.9707 115.267 62.4657 115.019 62.1893 114.715C61.9129 114.41 61.6652 113.8 61.4555 112.894L61.1411 111.608C61.0648 111.284 60.9791 111.065 60.8742 110.931C60.779 110.798 60.6265 110.703 60.4359 110.636C60.0547 110.503 59.8641 110.331 59.8641 110.121V109.931L61.2459 109.95C61.6461 109.95 61.9225 110.045 62.0654 110.207C62.2179 110.369 62.3513 110.703 62.4561 111.189L62.904 113.123C63.0374 113.581 63.1422 113.924 63.2089 114.152C63.2756 114.391 63.3995 114.591 63.5806 114.753C63.7616 114.915 63.9808 115.029 64.2286 115.067C64.4763 115.115 64.8194 115.134 65.2863 115.143L67.0683 115.172L67.1255 111.684C67.1255 111.332 67.1064 111.103 67.0493 111.008C66.9921 110.912 66.8396 110.817 66.5823 110.722C66.2012 110.588 66.0106 110.36 66.0106 110.026L69.5841 110.083C69.5841 110.417 69.384 110.645 68.9933 110.76C68.736 110.836 68.574 110.922 68.5168 111.027C68.4596 111.131 68.4215 111.351 68.412 111.703L68.2786 119.794C68.2786 120.146 68.2976 120.375 68.3548 120.48C68.412 120.585 68.574 120.67 68.8217 120.766C69.2029 120.899 69.3935 121.128 69.3935 121.461L68.2881 121.442H65.5055C62.4942 121.395 61.0077 120.289 61.0458 118.126ZM65.3149 115.839H64.6383C63.9427 115.82 63.4091 116.02 63.0279 116.43C62.6562 116.84 62.4656 117.411 62.4466 118.136C62.418 119.851 63.4376 120.718 65.5055 120.756C66.325 120.766 66.7634 120.747 66.8492 120.68C66.9254 120.613 66.9635 120.451 66.973 120.203L67.0397 116.439C67.0397 116.287 67.0207 116.192 66.9826 116.125C66.8777 115.953 66.3155 115.858 65.3149 115.849V115.839Z" fill="#183428"/>
<path d="M54.3188 118.612L56.2532 110.646C56.3294 110.331 56.3294 110.102 56.2723 109.94C56.2056 109.778 56.0436 109.674 55.7672 109.607L53.3563 109.064C52.8894 108.959 52.5082 108.94 52.2128 108.997C51.9174 109.054 51.6696 109.226 51.4599 109.493C51.2503 109.759 51.0788 109.931 50.9454 109.998C50.8024 110.055 50.6309 110.064 50.4403 110.017L50.9835 107.777L58.9786 109.721C58.9024 110.045 58.6546 110.226 58.2544 110.255C57.978 110.274 57.8065 110.322 57.7303 110.407C57.654 110.493 57.5683 110.703 57.4825 111.046L55.5671 118.908C55.4813 119.251 55.4623 119.479 55.4909 119.594C55.529 119.698 55.6624 119.832 55.8816 119.975C56.2246 120.194 56.358 120.461 56.2818 120.785L52.8131 119.937C52.8893 119.613 53.1371 119.432 53.5373 119.403C53.8042 119.394 53.9852 119.336 54.0615 119.26C54.1377 119.174 54.2235 118.955 54.3092 118.612H54.3188Z" fill="#183428"/>
<path d="M41.7862 106.805C42.1674 106.005 42.8154 105.48 43.7302 105.233C44.6451 104.985 45.7505 105.166 47.0179 105.766C48.5807 106.5 49.3811 107.31 49.4097 108.206C49.4288 108.444 49.3811 108.682 49.2668 108.911C49.019 109.445 48.6283 109.654 48.1137 109.54C48.2662 108.863 48.19 108.225 47.885 107.634C47.5801 107.053 47.075 106.586 46.3603 106.252C45.6456 105.919 44.9881 105.814 44.3973 105.938C43.8065 106.062 43.3776 106.405 43.1204 106.958C42.8631 107.52 42.8345 108.072 43.0537 108.644C43.2728 109.206 43.8255 109.902 44.7118 110.75C45.598 111.589 46.1697 112.342 46.4366 112.999C46.6939 113.657 46.6748 114.314 46.3603 114.981C45.9601 115.839 45.3216 116.392 44.464 116.62C43.6064 116.859 42.6248 116.716 41.529 116.211C41.0144 115.972 40.4998 115.658 39.9757 115.277C39.4611 114.895 39.0799 114.571 38.8417 114.286L39.8899 113.323C40.0233 113.199 40.1377 113.161 40.252 113.218C40.3664 113.266 40.4331 113.437 40.4426 113.704C40.4998 114.524 40.9191 115.115 41.71 115.486C42.5009 115.858 43.1775 115.982 43.7302 115.839C44.2829 115.696 44.6927 115.353 44.9405 114.829C45.1882 114.295 45.2073 113.79 45.0072 113.304C44.8071 112.818 44.3211 112.208 43.5492 111.474C42.7773 110.741 42.2246 110.102 41.8911 109.559C41.5575 109.016 41.3955 108.549 41.3955 108.149C41.3955 107.748 41.5194 107.291 41.7577 106.776L41.7862 106.805Z" fill="#183428"/>
<path d="M33.239 100.659C33.906 99.7821 34.716 99.4105 35.6594 99.5439C36.6028 99.6868 37.8607 100.344 39.4235 101.536L41.3389 103.022L42.2633 103.727C42.0632 103.994 41.7678 104.061 41.3866 103.927C41.1293 103.832 40.9482 103.813 40.8434 103.861C40.7386 103.908 40.5766 104.07 40.3574 104.347L35.4689 110.798C35.2497 111.084 35.1449 111.284 35.1353 111.398C35.1258 111.513 35.1925 111.684 35.345 111.903C35.5737 112.237 35.5927 112.542 35.3926 112.799L34.5159 112.132L32.2193 110.445C30.9138 109.454 30.1038 108.549 29.8084 107.739C29.513 106.929 29.6655 106.11 30.2849 105.29C30.9901 104.366 32.1336 104.166 33.7155 104.68C33.2771 104.223 32.9531 103.651 32.7435 102.965C32.6386 102.612 32.6291 102.231 32.7053 101.831C32.7816 101.431 32.9626 101.03 33.2485 100.659H33.239ZM34.5922 105.69C33.9918 105.233 33.42 105.052 32.8673 105.138C32.3242 105.223 31.8286 105.557 31.3903 106.148C30.485 107.339 30.8948 108.587 32.6196 109.902C33.0484 110.226 33.4582 110.522 33.8584 110.779L36.336 107.51C36.4027 107.425 36.4313 107.348 36.4313 107.291C36.4123 107.148 36.1169 106.853 35.5356 106.405L34.5922 105.69ZM39.2806 103.622C39.5284 103.298 39.6141 103.022 39.5379 102.774C39.4712 102.527 39.1853 102.222 38.6898 101.84C37.6797 101.069 36.822 100.659 36.1454 100.602C35.4689 100.544 34.8685 100.849 34.3635 101.516C33.8584 102.184 33.6678 102.832 33.7822 103.451C33.8965 104.08 34.2777 104.642 34.9257 105.128L36.1169 106.024C36.5076 106.319 36.7648 106.481 36.8792 106.529C36.9936 106.567 37.1079 106.519 37.2032 106.376L39.2901 103.613L39.2806 103.622Z" fill="#183428"/>
<path d="M24.6158 102.688L28.0464 99.7534C27.932 99.6391 27.6557 99.3151 27.1982 98.791L26.1405 97.5522C25.7021 97.0471 25.34 96.7136 25.0351 96.5611L25.2352 96.3896C25.4448 96.2085 25.6354 96.1132 25.826 96.0846C26.0166 96.0656 26.1977 96.1514 26.3787 96.361C26.5598 96.5706 26.7885 96.8946 27.0648 97.3425C27.3412 97.7904 27.6461 98.2287 27.9892 98.648L28.5419 99.3246L31.3912 96.8851C31.7152 96.6088 31.8867 96.3515 31.9248 96.1132C31.9534 95.875 31.82 95.5701 31.515 95.2175C30.5621 94.1025 29.9332 93.4355 29.6378 93.2354C29.3423 93.0352 29.1041 92.9114 28.9135 92.8828C28.7229 92.8542 28.58 92.8351 28.4752 92.8447C28.3704 92.8542 28.2274 92.8828 28.0654 92.9304C27.7509 93.0162 27.4937 92.959 27.3126 92.7494L29.0183 91.2914L34.3738 97.5522C34.1165 97.7713 33.8211 97.7713 33.4781 97.5522C33.2494 97.4092 33.0779 97.352 32.9635 97.3711C32.8491 97.3902 32.6586 97.514 32.3917 97.7427L26.2453 103.003C25.9785 103.232 25.826 103.403 25.7879 103.518C25.7498 103.632 25.7879 103.803 25.8832 104.061C26.0357 104.442 25.988 104.737 25.7403 104.947L20.5468 98.8767L22.1191 97.5331C22.3002 97.7427 22.3669 97.9524 22.3383 98.162C22.3192 98.2383 22.2811 98.3526 22.2239 98.5051C22.0143 99.0102 22.2239 99.6677 22.8624 100.478C23.5009 101.288 24.1012 102.021 24.6539 102.679L24.6158 102.688Z" fill="#183428"/>
<path d="M17.2209 86.9078C17.8593 86.5743 18.4883 86.5076 19.1172 86.7267C19.7461 86.9459 20.3179 87.3461 20.842 87.9465C20.6514 87.2127 20.6228 86.66 20.7563 86.2693C20.8897 85.8786 21.309 85.3736 22.0046 84.7542L22.9861 83.8584C23.2339 83.6392 23.3864 83.4486 23.4531 83.2962C23.5198 83.1437 23.5388 82.9722 23.5007 82.7721C23.434 82.3718 23.5007 82.1241 23.6818 82.0192L23.8533 81.9335L24.4918 83.1532C24.6728 83.5058 24.73 83.7917 24.6633 84.0013C24.5871 84.211 24.3679 84.4873 23.9867 84.8209L22.5097 86.1454C22.1761 86.479 21.9284 86.7363 21.7568 86.9078C21.5853 87.0793 21.471 87.289 21.4138 87.5272C21.3566 87.7654 21.3661 88.0037 21.4424 88.2419C21.5186 88.4801 21.6615 88.7946 21.8807 89.2044L22.7098 90.7767L25.7973 89.1472C26.1117 88.9852 26.3023 88.8518 26.3595 88.7565C26.4167 88.6612 26.4262 88.4801 26.3786 88.2133C26.3119 87.8131 26.4262 87.5367 26.7216 87.3747L28.3797 90.5385C28.0843 90.6909 27.7889 90.6338 27.503 90.3479C27.3124 90.1573 27.16 90.062 27.0361 90.0525C26.9217 90.0525 26.7026 90.1287 26.3881 90.2907L19.222 94.0548C18.9076 94.2168 18.717 94.3502 18.6598 94.455C18.6026 94.5599 18.5931 94.7409 18.6407 94.9982C18.717 95.3984 18.6026 95.6748 18.2977 95.8368L17.7831 94.8648L16.449 92.4253C15.0482 89.7666 15.3055 87.9274 17.2209 86.9268V86.9078ZM21.2804 89.557L20.9659 88.9661C20.6419 88.3467 20.2036 87.9751 19.6699 87.8417C19.1267 87.7083 18.5359 87.8131 17.8879 88.1561C16.3728 88.9566 16.0964 90.2717 17.0589 92.1013C17.44 92.8255 17.6783 93.1972 17.7736 93.2353C17.8689 93.2734 18.0309 93.2353 18.25 93.1114L21.5853 91.358C21.7187 91.2913 21.795 91.2246 21.8331 91.1579C21.9284 90.9768 21.7473 90.4432 21.2804 89.557Z" fill="#183428"/>
<path d="M11.6267 78.2457C11.9317 79.5226 12.5987 80.4184 13.6279 80.9234C14.6571 81.4285 15.9817 81.4857 17.6112 81.0854C19.2502 80.6852 20.3937 79.98 21.0513 78.9699C21.7088 77.9598 21.8613 76.7686 21.5277 75.4155C21.3943 74.8914 21.1942 74.453 20.9083 74.0909C20.6224 73.7288 20.4128 73.5287 20.2699 73.4715C20.1269 73.4143 19.8887 73.4238 19.5647 73.5001L15.5624 74.4911L15.3908 73.7764C15.3051 73.4238 15.4289 73.1951 15.772 73.1189L21.2228 71.7753L21.2419 71.842C21.2895 72.0516 21.2323 72.2517 21.0417 72.4328C20.8607 72.6139 20.7844 72.7663 20.813 72.8807C20.8416 72.995 20.9655 73.1666 21.1847 73.3762C21.7755 74.0242 22.1757 74.7389 22.3663 75.5298C22.7475 77.0926 22.6236 78.4744 21.9851 79.6942C21.6611 80.3136 21.1656 80.8663 20.47 81.3523C19.7743 81.8383 18.9453 82.2099 17.9542 82.4577C16.1722 82.896 14.6571 82.7436 13.4087 82.0003C12.1604 81.257 11.3313 80.0658 10.9311 78.4268C10.75 77.6835 10.6452 76.9497 10.6357 76.216C10.6166 75.4822 10.6547 74.8914 10.75 74.4244L12.1318 74.596C12.3414 74.615 12.4653 74.6912 12.4939 74.8247C12.5225 74.92 12.4367 75.0724 12.2461 75.2725C11.8745 75.6442 11.6363 76.054 11.541 76.5209C11.4362 76.9783 11.4743 77.5596 11.6458 78.2552L11.6267 78.2457Z" fill="#183428"/>
<path d="M19.4023 67.992C19.7549 67.992 19.9836 67.9539 20.0789 67.8967C20.1742 67.8395 20.26 67.6775 20.3457 67.4202C20.4601 67.0295 20.6888 66.8294 21.0128 66.8199L21.089 70.3839C20.7555 70.3839 20.5268 70.2028 20.3934 69.8216C20.3076 69.5643 20.2123 69.4119 20.1075 69.3547C20.0027 69.2975 19.774 69.2785 19.4214 69.2785L11.3214 69.4595C10.9688 69.4595 10.7401 69.5072 10.6448 69.5643C10.5496 69.631 10.4638 69.7835 10.378 70.0408C10.2637 70.4315 10.035 70.6316 9.70144 70.6412L9.52039 62.6556L11.5883 62.6079C11.5883 62.8843 11.5215 63.0939 11.3596 63.2369C11.3024 63.2845 11.1976 63.3512 11.0546 63.4274C10.5686 63.6847 10.3209 64.3327 10.3018 65.3619C10.2827 66.3911 10.2827 67.3345 10.3018 68.2016L15.1236 68.0968C15.1141 67.9348 15.0951 67.5155 15.076 66.8104L15.0379 65.1808C15.0188 64.5138 14.9426 64.0278 14.7996 63.7228H15.0665C15.3428 63.7133 15.562 63.761 15.724 63.8563C15.886 63.9611 15.9718 64.1517 15.9813 64.428C15.9813 64.7044 15.9432 65.1046 15.8765 65.6192C15.8098 66.1433 15.7716 66.6674 15.7716 67.2106V68.0778L19.3928 67.992H19.4023Z" fill="#183428"/>
<path d="M15.1809 60.4066C13.3417 60.0255 12.0362 59.2536 11.2643 58.1005C10.4924 56.938 10.2733 55.5943 10.5877 54.041C10.9117 52.4973 11.6836 51.3823 12.9224 50.7058C14.1612 50.0292 15.6383 49.8672 17.3726 50.2198C20.2028 50.8011 21.8038 52.2209 22.1849 54.4794C22.2898 55.1274 22.2707 55.8135 22.1182 56.5282C21.7752 58.1672 20.9938 59.3108 19.774 59.9778C18.5447 60.6449 17.02 60.7783 15.1809 60.4066ZM20.7079 53.3645C19.9932 52.5449 18.802 51.9636 17.1249 51.6206C15.4572 51.2775 14.1231 51.3442 13.1225 51.8207C12.1315 52.2972 11.5121 53.1167 11.2834 54.2697C11.0451 55.4133 11.2929 56.4138 12.0267 57.262C12.7509 58.1196 13.9516 58.7104 15.6002 59.0535C17.2583 59.3965 18.5733 59.3298 19.5548 58.8534C20.5364 58.3864 21.1462 57.5574 21.394 56.3662C21.6418 55.175 21.4035 54.1744 20.6888 53.3549L20.7079 53.3645Z" fill="#183428"/>
<path d="M13.9523 43.6445C14.0476 43.4539 14.1429 43.3395 14.2382 43.2824C14.343 43.2252 14.5336 43.1871 14.829 43.1394L25.7401 41.5766L18.5931 38.0031C18.2786 37.8411 18.0595 37.7649 17.9451 37.7744C17.8308 37.7744 17.6783 37.8792 17.4877 38.0793C17.2018 38.3747 16.9064 38.4414 16.611 38.2985L17.9642 35.5922C18.2691 35.7446 18.3835 36.021 18.3168 36.4212C18.2691 36.688 18.2786 36.8691 18.3453 36.9644C18.4121 37.0597 18.6026 37.1836 18.9266 37.3456L27.6365 41.7005L27.3029 42.3675C27.1791 42.6153 26.8836 42.7773 26.4167 42.844L15.0863 44.4354L22.5669 48.1709C22.8909 48.3329 23.1005 48.4091 23.2148 48.3996C23.3292 48.3996 23.4817 48.2948 23.6723 48.0947C23.9581 47.8088 24.2535 47.7326 24.549 47.885L23.1958 50.5914C22.8909 50.4389 22.7765 50.1625 22.8432 49.7623C22.8908 49.4955 22.8718 49.3144 22.8051 49.2191C22.7384 49.1238 22.5478 48.9904 22.2333 48.8284L14.991 45.2073C14.6765 45.0453 14.4574 44.9786 14.343 44.9881C14.2287 44.9976 14.0762 45.1025 13.8856 45.293C13.5997 45.5789 13.3043 45.6552 13.0089 45.5027L13.9428 43.6349L13.9523 43.6445Z" fill="#183428"/>
<path d="M28.7892 39.8424C28.5414 39.6232 28.4937 39.3182 28.6557 38.9561C28.7701 38.7084 28.7987 38.5273 28.7606 38.4225C28.7224 38.3177 28.57 38.1461 28.3032 37.9079L22.233 32.5524C21.9661 32.3142 21.7756 32.1903 21.6707 32.1617C21.5659 32.1331 21.3848 32.1998 21.1466 32.3332C20.794 32.5429 20.4986 32.5333 20.2509 32.3142L21.0513 31.4089L22.6808 29.4935C24.1293 27.8544 25.5968 26.9396 27.0929 26.73C28.589 26.5299 30.028 27.0349 31.4002 28.2451C32.7724 29.4554 33.4299 30.8562 33.3823 32.419C33.3251 33.9913 32.5723 35.5923 31.1238 37.2313L29.7707 38.7084L28.7701 39.8328L28.7892 39.8424ZM29.0846 36.8692C29.3704 37.1265 29.6468 37.2218 29.9231 37.1837C30.1995 37.136 30.533 36.8883 30.9333 36.4309C32.0101 35.2111 32.5151 34.0009 32.458 32.7811C32.4008 31.5709 31.7147 30.3892 30.4187 29.2457C29.1227 28.1022 27.8934 27.5876 26.7499 27.7115C25.5968 27.8354 24.4152 28.5787 23.2145 29.9414C22.8714 30.3321 22.5951 30.6656 22.3854 30.9419L29.0846 36.8597V36.8692Z" fill="#183428"/>
<path d="M32.2201 21.3648L34.8216 25.0431C34.9455 24.9478 35.2885 24.6905 35.8603 24.2903L37.1944 23.3469C37.7376 22.9657 38.0997 22.6227 38.2807 22.3368L38.4332 22.5559C38.5857 22.7751 38.6714 22.9848 38.681 23.1754C38.681 23.3659 38.5762 23.547 38.3474 23.6995C38.1187 23.8615 37.7757 24.0521 37.3087 24.2903C36.8418 24.5285 36.3749 24.7953 35.927 25.0908L35.2028 25.5768L37.3659 28.6452C37.6137 28.9883 37.8519 29.1884 38.0902 29.2456C38.3284 29.3027 38.6333 29.1884 39.024 28.9216C40.2247 28.0734 40.9394 27.5112 41.1681 27.2349C41.3968 26.9585 41.5398 26.7298 41.5874 26.5487C41.6351 26.3677 41.6637 26.2152 41.6637 26.1104C41.6637 26.0056 41.6446 25.8626 41.616 25.6911C41.5588 25.3671 41.6351 25.1193 41.8638 24.9573L43.1598 26.787L36.432 31.5421C36.2415 31.2658 36.2605 30.9704 36.5083 30.6464C36.6703 30.4272 36.7465 30.2652 36.737 30.1508C36.7275 30.0365 36.6226 29.8364 36.4225 29.541L31.7531 22.9276C31.5435 22.6322 31.391 22.4702 31.2862 22.4225C31.1814 22.3749 31.0003 22.3939 30.743 22.4702C30.3523 22.5941 30.0664 22.5178 29.8759 22.2415L36.3939 17.6293L37.5851 19.316C37.3564 19.478 37.1467 19.5256 36.9371 19.478C36.8609 19.4589 36.756 19.4017 36.6036 19.3255C36.1176 19.0682 35.4505 19.2207 34.5834 19.7829C33.7162 20.3451 32.9348 20.8693 32.2201 21.3648Z" fill="#183428"/>
<path d="M47.085 23.1755L43.5972 14.8278C42.8825 15.1327 42.2536 15.4091 41.7104 15.6569C41.1672 15.9046 40.9195 16.3239 40.9385 16.9052C40.9576 17.0958 40.9576 17.2292 40.9385 17.3245C40.9004 17.6008 40.7575 17.7914 40.5097 17.8963L40.443 17.9248L39.5282 15.7807L48.3047 12.1119L49.191 14.2656L49.1528 14.2846C48.9432 14.3704 48.7621 14.3799 48.6287 14.3132C48.4953 14.237 48.3428 14.094 48.1713 13.8844C47.8283 13.4556 47.3518 13.3508 46.7324 13.5699C46.113 13.7986 45.465 14.0464 44.7789 14.3323L48.2666 22.68C48.3905 22.9849 48.5144 23.1755 48.6287 23.2518C48.7431 23.328 48.9432 23.347 49.2386 23.3089C49.7055 23.2613 50.001 23.3852 50.1248 23.6806L46.4846 25.2053C46.3607 24.9099 46.4846 24.6144 46.8372 24.3095C47.0659 24.1285 47.1898 23.9665 47.2184 23.8235C47.247 23.6806 47.1993 23.4709 47.0754 23.1755H47.085Z" fill="#183428"/>
<path d="M48.0561 59.0152C49.1425 59.6441 49.5903 60.7495 48.9042 61.9407C47.7226 63.98 48.4087 66.3147 50.305 67.4106C51.7916 68.2777 53.4593 67.9728 54.3645 67.5344C56.4419 66.5434 58.2906 64.7423 60.4252 65.9716C61.0065 66.3052 61.3019 66.8579 61.3019 66.8579C61.3019 66.8579 61.6354 67.3915 61.6354 68.0586C61.6354 70.5171 59.1483 71.2223 57.2424 72.5183C56.4134 73.0901 55.3175 74.3765 55.3175 76.0918C55.3175 78.2931 56.9851 80.0465 59.3484 80.0465C60.7301 80.0465 61.4544 80.9899 61.4544 82.2478C61.4544 84.125 62.8457 86.3263 65.5615 86.3263C68.2774 86.3263 69.6687 84.125 69.6687 82.2478C69.6687 80.9899 70.3929 80.0465 71.7747 80.0465C74.1379 80.0465 75.8056 78.2835 75.8056 76.0918C75.8056 74.367 74.7097 73.0805 73.8807 72.5183C71.9843 71.2223 69.4876 70.5171 69.4876 68.0586C69.4876 67.3915 69.8211 66.8579 69.8211 66.8579C69.8211 66.8579 70.1166 66.3052 70.6979 65.9716C72.8324 64.7423 74.6811 66.5434 76.7585 67.5344C77.6638 67.9633 79.3314 68.2682 80.818 67.4106C82.7239 66.3052 83.41 63.98 82.2188 61.9407C81.5232 60.7495 81.9806 59.6441 83.0669 59.0152C84.6869 58.0718 85.8972 55.7657 84.5345 53.4215C83.1718 51.0677 80.5798 50.9724 78.9503 51.9063C77.8639 52.5352 76.6823 52.3732 75.9866 51.1821C74.805 49.1333 72.4417 48.571 70.5358 49.6764C69.0397 50.5436 68.4775 52.135 68.4013 53.1356C68.2297 55.4322 68.8682 57.9384 66.7336 59.1677C66.1523 59.5012 65.5425 59.4821 65.5425 59.4821C65.5425 59.4821 64.9326 59.5012 64.3513 59.1677C62.2167 57.9384 62.8647 55.4322 62.6932 53.1356C62.617 52.135 62.0547 50.5341 60.5586 49.6764C58.6527 48.571 56.299 49.1428 55.1078 51.1821C54.4122 52.3732 53.2401 52.5352 52.1442 51.9063C50.5242 50.9629 47.9227 51.0677 46.56 53.4215C45.1973 55.7657 46.4075 58.0718 48.0275 59.0152" fill="#183428"/>
<path d="M65.6758 17.3339C66.9389 17.3339 67.9629 16.3099 67.9629 15.0468C67.9629 13.7837 66.9389 12.7598 65.6758 12.7598C64.4127 12.7598 63.3888 13.7837 63.3888 15.0468C63.3888 16.3099 64.4127 17.3339 65.6758 17.3339Z" fill="#183428"/>
</g>
<defs>
<clipPath id="clip0_518_1584">
<rect width="131" height="131" fill="white"/>
</clipPath>
</defs>
</svg>
