<svg width="33" height="39" viewBox="0 0 33 39" fill="none" xmlns="http://www.w3.org/2000/svg">
<path fill-rule="evenodd" clip-rule="evenodd" d="M32.7842 19.1757C32.9262 18.3048 33 17.411 33 16.5C33 7.3873 25.6127 0 16.5 0C7.3873 0 0 7.3873 0 16.5C0 17.411 0.073833 18.3048 0.215842 19.1757C0.073833 20.0466 0 20.9403 0 21.8514C0 30.964 7.3873 38.3514 16.5 38.3514C25.6127 38.3514 33 30.964 33 21.8514C33 20.9403 32.9262 20.0466 32.7842 19.1757ZM31.3994 23.5983C31.4658 23.0252 31.5 22.4423 31.5 21.8514C31.5 13.5671 24.7843 6.85135 16.5 6.85135C8.21573 6.85135 1.5 13.5671 1.5 21.8514C1.5 22.4423 1.53417 23.0252 1.60064 23.5983C0.942356 22.219 0.469952 20.734 0.215842 19.1757C1.49431 11.3354 8.29832 5.35135 16.5 5.35135C24.7017 5.35135 31.5057 11.3354 32.7842 19.1757C32.53 20.734 32.0576 22.219 31.3994 23.5983ZM31.3994 23.5983C28.7457 29.1583 23.0715 33 16.5 33C9.92851 33 4.25428 29.1583 1.60064 23.5983C2.46605 31.0595 8.80665 36.8514 16.5 36.8514C24.1934 36.8514 30.5339 31.0595 31.3994 23.5983Z" fill="white"/>
</svg>
