<svg width="389" height="243" viewBox="0 0 389 243" fill="none" xmlns="http://www.w3.org/2000/svg">
<g opacity="0.8">
<mask id="mask0_564_2963" style="mask-type:alpha" maskUnits="userSpaceOnUse" x="0" y="0" width="389" height="243">
<mask id="mask1_564_2963" style="mask-type:alpha" maskUnits="userSpaceOnUse" x="0" y="0" width="389" height="243">
<rect width="388.125" height="243" fill="#CCF2DB"/>
</mask>
<g mask="url(#mask1_564_2963)">
<path d="M436.493 107.636L314.186 305.183" stroke="white" stroke-width="6" stroke-miterlimit="10"/>
<path d="M425.872 101.064L303.564 298.611" stroke="white" stroke-width="6" stroke-miterlimit="10"/>
<path d="M415.631 94.7261L293.323 292.273" stroke="white" stroke-width="6" stroke-miterlimit="10"/>
<path d="M405.01 88.1519L282.703 285.701" stroke="white" stroke-width="6" stroke-miterlimit="10"/>
<path d="M394.767 81.814L272.46 279.361" stroke="white" stroke-width="6" stroke-miterlimit="10"/>
<path d="M384.145 75.2417L261.838 272.789" stroke="white" stroke-width="6" stroke-miterlimit="10"/>
<path d="M373.905 68.9043L251.598 266.451" stroke="white" stroke-width="6" stroke-miterlimit="10"/>
<path d="M363.283 62.3296L240.976 259.879" stroke="white" stroke-width="6" stroke-miterlimit="10"/>
<path d="M352.852 55.8735L230.545 253.423" stroke="white" stroke-width="6" stroke-miterlimit="10"/>
<path d="M128.799 188.528L40.2676 331.523" stroke="white" stroke-width="6" stroke-miterlimit="10"/>
<path d="M118.179 181.956L29.6475 324.951" stroke="white" stroke-width="6" stroke-miterlimit="10"/>
<path d="M107.936 175.618L19.4043 318.613" stroke="white" stroke-width="6" stroke-miterlimit="10"/>
<path d="M97.317 169.044L8.78516 312.039" stroke="white" stroke-width="6" stroke-miterlimit="10"/>
<path d="M87.0748 162.706L-1.45703 305.701" stroke="white" stroke-width="6" stroke-miterlimit="10"/>
<path d="M76.4518 156.134L-12.0801 299.129" stroke="white" stroke-width="6" stroke-miterlimit="10"/>
<path d="M66.2115 149.796L-22.3203 292.791" stroke="white" stroke-width="6" stroke-miterlimit="10"/>
<path d="M55.5895 143.221L-32.9424 286.216" stroke="white" stroke-width="6" stroke-miterlimit="10"/>
<path d="M45.1598 136.768L-43.3721 279.763" stroke="white" stroke-width="6" stroke-miterlimit="10"/>
<path d="M155.88 -65.7974L-53.9951 273.188" stroke="white" stroke-width="6" stroke-miterlimit="10"/>
<path d="M250.358 222.293L52.6191 99.9221" stroke="white" stroke-width="6" stroke-miterlimit="10"/>
<path d="M256.465 212.434L58.7256 90.063" stroke="white" stroke-width="6" stroke-miterlimit="10"/>
<path d="M263.274 201.436L65.5332 79.0645" stroke="white" stroke-width="6" stroke-miterlimit="10"/>
<path d="M269.38 191.574L71.6387 69.2053" stroke="white" stroke-width="6" stroke-miterlimit="10"/>
<path d="M275.835 181.146L78.0957 58.7749" stroke="white" stroke-width="6" stroke-miterlimit="10"/>
<path d="M281.94 171.285L84.2012 48.9158" stroke="white" stroke-width="6" stroke-miterlimit="10"/>
<path d="M288.749 160.288L91.0078 37.917" stroke="white" stroke-width="6" stroke-miterlimit="10"/>
<path d="M294.855 150.427L97.1143 28.0557" stroke="white" stroke-width="6" stroke-miterlimit="10"/>
<path d="M301.663 139.431L103.924 17.0596" stroke="white" stroke-width="6" stroke-miterlimit="10"/>
<path d="M307.768 129.569L110.029 7.19824" stroke="white" stroke-width="6" stroke-miterlimit="10"/>
<path d="M314.578 118.57L116.837 -3.79883" stroke="white" stroke-width="6" stroke-miterlimit="10"/>
<path d="M320.683 108.711L122.941 -13.6602" stroke="white" stroke-width="6" stroke-miterlimit="10"/>
<path d="M327.257 98.0909L129.518 -24.2803" stroke="white" stroke-width="6" stroke-miterlimit="10"/>
<path d="M333.361 88.232L135.62 -34.1392" stroke="white" stroke-width="6" stroke-miterlimit="10"/>
<path d="M340.17 77.2335L142.431 -45.1377" stroke="white" stroke-width="6" stroke-miterlimit="10"/>
<path d="M346.274 67.3746L148.535 -54.9966" stroke="white" stroke-width="6" stroke-miterlimit="10"/>
<path d="M436.163 108.049L155.228 -65.8062" stroke="white" stroke-width="6" stroke-miterlimit="10"/>
<path d="M231.493 252.933L33.752 130.562" stroke="white" stroke-width="6" stroke-miterlimit="10"/>
<path d="M238.185 242.124L40.4434 119.755" stroke="white" stroke-width="6" stroke-miterlimit="10"/>
<path d="M244.29 232.264L46.5488 109.893" stroke="white" stroke-width="6" stroke-miterlimit="10"/>
</g>
</mask>
<g mask="url(#mask0_564_2963)">
<rect x="67" y="1" width="313" height="241" fill="#FFD8C2"/>
</g>
</g>
</svg>
