<svg width="690" height="432" viewBox="0 0 690 432" fill="none" xmlns="http://www.w3.org/2000/svg">
<mask id="mask0_518_1492" style="mask-type:alpha" maskUnits="userSpaceOnUse" x="0" y="0" width="690" height="432">
<rect width="690" height="432" fill="#F2F2F2"/>
</mask>
<g mask="url(#mask0_518_1492)">
<path fill-rule="evenodd" clip-rule="evenodd" d="M277.541 -79.54L776.981 229.535L775.893 231.293L778.54 232.932L561.104 584.127L556.003 580.969L771.368 233.118L757.59 224.591L542.225 572.443L537.123 569.285L752.488 221.434L739.382 213.323L524.016 561.176L518.914 558.018L734.28 210.166L720.5 201.638L505.136 549.492L500.034 546.334L715.398 198.481L702.291 190.37L486.926 538.221L481.824 535.063L697.189 187.212L683.408 178.684L468.042 526.537L462.94 523.379L678.306 175.527L665.203 167.418L449.837 515.27L444.735 512.112L660.1 164.26L646.318 155.731L430.953 503.586L425.852 500.428L641.216 152.574L627.775 144.256L412.411 492.109L410.688 491.042L409.966 492.209L229.271 380.387L74.1396 630.953L69.0381 627.794L224.169 377.229L210.392 368.703L55.2597 619.269L50.1583 616.111L205.29 365.546L192.183 357.434L37.0497 608.002L31.9483 604.843L187.08 354.277L173.302 345.75L18.1708 596.314L13.0694 593.156L168.2 342.592L155.092 334.481L-0.0391541 585.047L-5.14056 581.888L149.99 331.324L136.21 322.796L-18.9229 573.363L-24.0244 570.205L131.108 319.638L118.004 311.529L-37.128 562.096L-42.2294 558.937L112.902 308.372L99.1197 299.843L-56.0118 550.408L-61.1132 547.25L94.0176 296.685L80.5775 288.368L-74.5548 538.935L-79.6562 535.776L75.4754 285.211L61.6935 276.682L-93.4386 527.247L-98.54 524.089L274.572 -78.5524L276.276 -77.4972L277.541 -79.54ZM64.852 271.58L409.746 485.016L418.484 470.902L73.5889 257.469L64.852 271.58ZM76.7473 252.367L421.643 465.8L429.336 453.373L84.4429 239.938L76.7473 252.367ZM87.6013 234.836L95.3674 222.293L440.26 435.73L432.495 448.272L87.6013 234.836ZM277.78 -72.3358L622.673 141.099L613.933 155.215L269.041 -58.2212L277.78 -72.3358ZM265.883 -53.1198L258.189 -40.693L603.08 172.744L610.774 160.317L265.883 -53.1198ZM255.031 -35.5916L599.922 177.845L590.975 192.296L246.083 -21.1391L255.031 -35.5916ZM242.924 -16.0376L235.232 -3.61253L580.123 209.824L587.817 197.397L242.924 -16.0376ZM232.073 1.48887L576.965 214.926L568.435 228.702L223.543 15.2671L232.073 1.48887ZM220.384 20.3686L212.689 32.7982L557.583 246.231L565.277 233.804L220.384 20.3686ZM209.53 37.8996L554.425 251.332L545.477 265.784L200.585 52.3472L209.53 37.8996ZM197.427 57.4486L189.731 69.8783L534.623 283.315L542.319 270.886L197.427 57.4486ZM186.573 74.9797L531.465 288.417L522.52 302.865L177.627 89.4294L186.573 74.9797ZM174.468 94.5308L166.773 106.96L511.666 320.396L519.361 307.966L174.468 94.5308ZM163.614 112.062L508.507 325.497L499.561 339.947L154.668 126.512L163.614 112.062ZM151.509 131.614L143.816 144.04L488.708 357.478L496.403 345.048L151.509 131.614ZM140.657 149.142L485.549 362.579L477.23 376.015L132.336 162.583L140.657 149.142ZM129.177 167.684L121.483 180.111L466.377 393.546L474.072 381.117L129.177 167.684ZM118.325 185.212L463.218 398.648L454.27 413.1L109.378 199.663L118.325 185.212ZM106.22 204.764L98.5258 217.191L443.418 430.629L451.112 418.202L106.22 204.764Z" fill="white" fill-opacity="0.03"/>
<path fill-rule="evenodd" clip-rule="evenodd" d="M277.541 -79.54L776.981 229.535L775.893 231.293L778.54 232.932L561.104 584.127L556.003 580.969L771.368 233.118L757.59 224.591L542.224 572.443L537.123 569.285L752.488 221.434L739.382 213.323L524.016 561.176L518.914 558.018L734.279 210.166L720.5 201.638L505.136 549.492L500.034 546.334L715.398 198.481L702.291 190.37L486.926 538.221L481.824 535.063L697.189 187.212L683.408 178.684L468.042 526.537L462.94 523.379L678.306 175.527L665.202 167.418L449.837 515.27L444.735 512.112L660.1 164.26L646.318 155.731L430.953 503.586L425.852 500.428L641.216 152.574L627.775 144.256L412.411 492.109L410.688 491.042L409.966 492.209L229.271 380.387L74.1395 630.953L69.0381 627.794L224.169 377.229L210.392 368.703L55.2596 619.269L50.1582 616.111L205.29 365.546L192.182 357.434L37.0497 608.002L31.9482 604.843L187.08 354.277L173.302 345.75L18.1707 596.314L13.0693 593.156L168.199 342.592L155.092 334.481L-0.0392151 585.047L-5.14062 581.888L149.99 331.324L136.21 322.796L-18.923 573.363L-24.0244 570.205L131.108 319.638L118.004 311.529L-37.1281 562.096L-42.2295 558.937L112.902 308.372L99.1196 299.843L-56.0119 550.408L-61.1133 547.25L94.0176 296.685L80.5774 288.368L-74.5548 538.935L-79.6563 535.776L75.4754 285.211L61.6935 276.682L-93.4386 527.247L-98.54 524.089L274.572 -78.5524L276.276 -77.4972L277.541 -79.54ZM64.8519 271.58L409.746 485.016L418.484 470.902L73.5889 257.469L64.8519 271.58ZM76.7473 252.367L421.643 465.8L429.336 453.373L84.4428 239.938L76.7473 252.367ZM87.6013 234.836L95.3673 222.293L440.26 435.73L432.495 448.272L87.6013 234.836ZM277.78 -72.3358L622.673 141.099L613.933 155.215L269.041 -58.2212L277.78 -72.3358ZM265.883 -53.1198L258.189 -40.693L603.08 172.744L610.774 160.317L265.883 -53.1198ZM255.031 -35.5916L599.922 177.845L590.975 192.296L246.083 -21.1391L255.031 -35.5916ZM242.924 -16.0376L235.232 -3.61253L580.123 209.824L587.817 197.397L242.924 -16.0376ZM232.073 1.48887L576.965 214.926L568.435 228.702L223.543 15.2671L232.073 1.48887ZM220.384 20.3686L212.689 32.7982L557.583 246.231L565.277 233.804L220.384 20.3686ZM209.53 37.8996L554.425 251.332L545.477 265.784L200.585 52.3472L209.53 37.8996ZM197.427 57.4486L189.731 69.8783L534.623 283.315L542.319 270.886L197.427 57.4486ZM186.573 74.9797L531.465 288.417L522.52 302.865L177.627 89.4294L186.573 74.9797ZM174.468 94.5308L166.773 106.96L511.666 320.396L519.361 307.966L174.468 94.5308ZM163.614 112.062L508.507 325.497L499.561 339.947L154.668 126.512L163.614 112.062ZM151.509 131.614L143.815 144.04L488.707 357.478L496.403 345.048L151.509 131.614ZM140.657 149.142L485.549 362.579L477.23 376.015L132.336 162.583L140.657 149.142ZM129.177 167.684L121.483 180.111L466.377 393.546L474.072 381.117L129.177 167.684ZM118.325 185.212L463.218 398.648L454.27 413.1L109.378 199.663L118.325 185.212ZM106.22 204.764L98.5257 217.191L443.418 430.629L451.112 418.202L106.22 204.764Z" fill="white" fill-opacity="0.03"/>
</g>
</svg>
