<svg width="73" height="67" viewBox="0 0 73 67" fill="none" xmlns="http://www.w3.org/2000/svg">
<path d="M48.437 23.828L47.9982 24.0677C46.7827 21.8423 44.4114 21.2394 42.4985 22.4411L42.4985 22.4412L42.4912 22.4456C40.9902 23.353 40.3902 25.1085 40.2681 26.2621C40.2266 26.8747 40.2306 27.5005 40.2347 28.1398C40.2351 28.2043 40.2355 28.269 40.2359 28.3338C40.2399 29.0343 40.2385 29.751 40.1629 30.4326C40.0103 31.8086 39.545 33.1212 38.1493 33.9858C37.7568 34.2364 37.3525 34.3475 37.0538 34.3974C36.9025 34.4226 36.7738 34.4329 36.6807 34.4368C36.634 34.4388 36.5959 34.4392 36.5679 34.439C36.5571 34.4389 36.5477 34.4388 36.54 34.4386C36.5324 34.4388 36.5234 34.4389 36.5129 34.439C36.4854 34.4392 36.4482 34.4388 36.4025 34.4368C36.3113 34.4328 36.1855 34.4224 36.0364 34.3971C35.7397 34.3468 35.3396 34.2357 34.936 33.9894L34.9335 33.9879C33.5352 33.1233 33.0692 31.8097 32.9165 30.4326C32.8409 29.751 32.8395 29.0343 32.8435 28.3338C32.8439 28.269 32.8443 28.2043 32.8447 28.1398C32.8488 27.4974 32.8528 26.8687 32.8107 26.2532L32.8106 26.2532L32.8102 26.2449C32.7515 25.1171 32.1586 23.3584 30.6237 22.4477L30.6168 22.4436L30.6101 22.4393C28.7317 21.2417 26.3652 21.8414 25.1804 24.0616C24.7423 24.8988 24.1059 25.4219 23.349 25.5924C22.6031 25.7604 21.8239 25.5671 21.1222 25.1444L21.1205 25.1434C20.2937 24.641 19.2148 24.4135 18.1801 24.6292C17.1607 24.8417 16.1558 25.4896 15.4566 26.7964L15.4545 26.8002C14.0346 29.3998 15.2761 31.92 16.9382 32.9302C17.6492 33.3589 18.18 33.9816 18.4051 34.7343C18.6318 35.4922 18.5328 36.3299 18.077 37.1497C16.8534 39.4241 17.5654 41.9591 19.4973 43.1433C20.997 44.0492 22.6896 43.724 23.6158 43.2616C24.1236 42.9975 24.6201 42.6874 25.13 42.3688C25.1913 42.3306 25.2527 42.2922 25.3144 42.2538C25.8817 41.9003 26.4688 41.5422 27.066 41.2708C28.2815 40.7184 29.6061 40.4986 31.0139 41.369L31.0139 41.369L31.0207 41.3733C31.4076 41.6213 31.6969 41.9437 31.8853 42.1929C31.9809 42.3193 32.0542 42.4317 32.1043 42.5138C32.1294 42.5549 32.1489 42.5889 32.1626 42.6135C32.1695 42.6259 32.175 42.636 32.1791 42.6435L32.1802 42.6457L32.1816 42.648C32.1859 42.6557 32.1916 42.6658 32.1984 42.6784C32.212 42.7035 32.2303 42.7384 32.2516 42.782C32.2942 42.8692 32.3494 42.9924 32.4044 43.1439C32.5132 43.4442 32.6262 43.8708 32.6262 44.356C32.6262 46.0567 31.8123 47.152 30.7607 47.9989C30.2447 48.4144 29.6633 48.7775 29.0946 49.1249C29.0318 49.1633 28.9691 49.2015 28.9066 49.2396C28.3951 49.5512 27.8968 49.8548 27.4298 50.1922L27.427 50.1942C26.5653 50.8077 25.4302 52.2406 25.4302 54.1248C25.4302 56.5491 27.1282 58.4408 29.5036 58.4408C30.4167 58.4408 31.162 58.7746 31.6712 59.3723C32.1714 59.9593 32.4023 60.7513 32.4023 61.605C32.4023 63.7155 33.8344 66.0577 36.5717 66.0577C39.309 66.0577 40.7411 63.7155 40.7411 61.605C40.7411 60.7513 40.972 59.9593 41.4721 59.3723C41.9814 58.7746 42.7266 58.4408 43.6397 58.4408C46.0151 58.4408 47.7132 56.5491 47.7132 54.1248C47.7132 52.2406 46.5781 50.8077 45.7164 50.1942L45.7163 50.1943L45.7066 50.1871C45.2192 49.8219 44.6916 49.4975 44.1484 49.1635C44.1193 49.1456 44.0901 49.1276 44.0608 49.1096C43.4956 48.7619 42.9135 48.4 42.3964 47.9875C41.3423 47.1466 40.5172 46.0598 40.5172 44.356C40.5172 43.8708 40.6301 43.4442 40.739 43.1439C40.7939 42.9924 40.8492 42.8692 40.8918 42.782C40.9131 42.7384 40.9314 42.7035 40.945 42.6784C40.9503 42.6686 40.9549 42.6603 40.9587 42.6535C40.9622 42.6464 40.9666 42.6378 40.9717 42.6278C40.985 42.6022 41.0037 42.5673 41.0279 42.5251C41.0763 42.4409 41.1475 42.3263 41.2426 42.1975C41.4306 41.9429 41.7235 41.6168 42.132 41.3675L42.1338 41.3664C43.5423 40.5153 44.8652 40.7456 46.0774 41.2964C46.6735 41.5673 47.2602 41.9228 47.8267 42.2715C47.8722 42.2996 47.9177 42.3276 47.963 42.3555C48.4902 42.6805 49.0024 42.9963 49.526 43.2608L49.526 43.2607L49.5305 43.2631C50.4849 43.7573 52.1745 44.0825 53.6731 43.1464L53.6768 43.1441C55.6096 41.9602 56.3222 39.4247 55.0984 37.1498C54.6425 36.33 54.5435 35.4923 54.7702 34.7343C54.9951 33.9825 55.5249 33.3604 56.2346 32.9317C57.9005 31.8864 59.1087 29.3642 57.7204 26.7994C57.0046 25.4894 55.9979 24.8414 54.9829 24.6291C53.9537 24.4138 52.8836 24.6403 52.0564 25.1424C51.3678 25.5677 50.5957 25.7603 49.8503 25.5924C49.0953 25.4224 48.4521 24.9015 47.9979 24.0671L48.437 23.828ZM48.437 23.828C49.2366 25.2968 50.5798 25.4675 51.7952 24.7161L37.8829 33.5626C39.7623 32.4006 39.7488 30.3198 39.7347 28.141C39.7306 27.5019 39.7264 26.8543 39.7699 26.219C39.8978 24.9893 40.5375 23.0424 42.2325 22.0177C44.4073 20.6515 47.0938 21.3688 48.437 23.828Z" fill="white" stroke="white"/>
<path d="M1.34064 30.8254C0.911484 25.5565 4.70105 20.9174 9.88436 20.234L11.9225 45.2567C6.69688 45.4211 2.20653 41.4564 1.77738 36.1875L1.34064 30.8254Z" fill="white" stroke="white"/>
<path d="M71.804 30.7573C72.1592 25.4829 68.3049 20.8974 63.1125 20.2867L61.4257 45.3356C66.653 45.4267 71.0873 41.3993 71.4425 36.1249L71.804 30.7573Z" fill="white" stroke="white"/>
<path d="M9.14013 23.5192C8.80346 17.499 11.4968 2 24.9636 2C38.4303 2 45.7244 2 49.2032 2C60.3132 2 63.6799 14.5273 63.6799 24.6721" stroke="white" stroke-width="4"/>
</svg>
