<svg width="41" height="31" viewBox="0 0 41 31" fill="none" xmlns="http://www.w3.org/2000/svg">
<path fill-rule="evenodd" clip-rule="evenodd" d="M41 13.3561L20.5 0L0 13.3561L2.82759 15.1983L1.25679 16.2217L0 17.0405L1.25679 17.8593L19.2432 29.5777L20.5 30.3966L21.7568 29.5777L39.7432 17.8593L41 17.0405L39.7432 16.2217L38.1724 15.1983L41 13.3561ZM36.9156 16.0171L38.1724 15.1983L21.7568 4.50325L20.5 3.68443L19.2432 4.50325L2.82759 15.1983L4.08438 16.0171L2.51359 17.0405L20.5 28.7589L38.4864 17.0405L36.9156 16.0171ZM36.9156 16.0171L20.5 26.7121L4.08438 16.0171L20.5 5.32207L36.9156 16.0171Z" fill="white"/>
</svg>
