<svg width="164" height="151" viewBox="0 0 164 151" fill="none" xmlns="http://www.w3.org/2000/svg">
<path d="M163.25 46C163.25 58.3126 154.4 69.6109 139.761 77.8738C125.144 86.1237 104.901 91.25 82.5 91.25C60.0992 91.25 39.8561 86.1237 25.2394 77.8738C10.5998 69.6109 1.75 58.3126 1.75 46C1.75 33.6874 10.5998 22.3891 25.2394 14.1262C39.8561 5.87634 60.0992 0.75 82.5 0.75C104.901 0.75 125.144 5.87634 139.761 14.1262C154.4 22.3891 163.25 33.6874 163.25 46Z" stroke="#CCF2DB" stroke-width="1.5"/>
<path opacity="0.5" d="M162.876 89.0249C162.942 89.6804 162.982 90.3397 162.995 91.0025L162.245 91.0175C162.248 91.1781 162.25 91.339 162.25 91.5C162.25 91.661 162.248 91.8218 162.245 91.9825L162.995 91.9975C162.982 92.6603 162.942 93.3196 162.876 93.9751L162.13 93.9002C162.098 94.2194 162.059 94.5377 162.015 94.8551L162.757 94.9597C162.665 95.6135 162.547 96.2633 162.404 96.9089L161.672 96.7464C161.602 97.0594 161.527 97.3714 161.445 97.6824L162.171 97.8729C162.003 98.5092 161.812 99.1412 161.596 99.7685L160.887 99.5245C160.782 99.8279 160.672 100.13 160.556 100.432L161.256 100.701C161.02 101.314 160.761 101.923 160.479 102.526L159.799 102.209C159.664 102.498 159.524 102.787 159.378 103.074L160.047 103.413C159.75 103.998 159.432 104.578 159.093 105.153L158.447 104.772C158.284 105.048 158.116 105.323 157.943 105.597L158.577 105.997C158.228 106.55 157.86 107.099 157.472 107.642L156.862 107.207C156.674 107.47 156.482 107.731 156.286 107.992L156.884 108.444C156.491 108.965 156.08 109.481 155.652 109.992L155.077 109.511C154.868 109.76 154.655 110.008 154.438 110.255L155.001 110.75C154.57 111.239 154.123 111.724 153.661 112.203L153.121 111.682C152.896 111.916 152.667 112.148 152.434 112.38L152.963 112.912C152.499 113.372 152.021 113.828 151.528 114.278L151.022 113.725C150.783 113.943 150.541 114.16 150.296 114.376L150.791 114.939C150.299 115.372 149.794 115.8 149.276 116.222L148.802 115.641C148.551 115.845 148.298 116.048 148.042 116.25L148.505 116.839C147.99 117.245 147.462 117.646 146.922 118.042L146.478 117.438C146.218 117.628 145.955 117.818 145.689 118.007L146.123 118.618C145.587 118.999 145.04 119.374 144.483 119.744L144.068 119.119C143.799 119.298 143.527 119.476 143.253 119.652L143.659 120.283C143.106 120.638 142.543 120.989 141.971 121.335L141.583 120.693C141.306 120.86 141.027 121.026 140.745 121.191L141.124 121.838C140.557 122.17 139.981 122.497 139.396 122.82L139.034 122.163C138.75 122.32 138.463 122.475 138.174 122.63L138.528 123.291C137.949 123.601 137.362 123.906 136.767 124.206L136.429 123.536C136.138 123.683 135.844 123.828 135.549 123.973L135.879 124.647C135.29 124.935 134.694 125.218 134.09 125.497L133.776 124.816C133.478 124.953 133.178 125.09 132.876 125.225L133.183 125.91C132.586 126.177 131.982 126.44 131.372 126.698L131.08 126.008C130.777 126.136 130.472 126.263 130.166 126.389L130.451 127.083C129.845 127.331 129.234 127.575 128.616 127.815L128.345 127.115C128.039 127.234 127.731 127.351 127.422 127.468L127.686 128.17C127.073 128.4 126.453 128.627 125.827 128.849L125.576 128.142C125.268 128.251 124.958 128.359 124.647 128.467L124.891 129.176C124.269 129.39 123.641 129.599 123.008 129.804L122.777 129.091C122.467 129.191 122.155 129.291 121.842 129.389L122.066 130.105C121.437 130.302 120.802 130.495 120.163 130.684L119.951 129.964C119.638 130.056 119.325 130.147 119.01 130.237L119.216 130.958C118.583 131.139 117.945 131.316 117.302 131.488L117.108 130.763C116.792 130.848 116.474 130.931 116.155 131.014L116.343 131.74C115.708 131.904 115.067 132.064 114.423 132.22L114.247 131.491C113.927 131.568 113.605 131.644 113.283 131.719L113.453 132.45C112.814 132.598 112.172 132.743 111.525 132.883L111.366 132.15C111.045 132.219 110.723 132.288 110.401 132.355L110.554 133.089C109.909 133.224 109.261 133.353 108.609 133.479L108.467 132.743C108.146 132.804 107.824 132.865 107.501 132.925L107.637 133.662C106.987 133.782 106.334 133.898 105.677 134.009L105.552 133.27C105.23 133.324 104.908 133.378 104.585 133.43L104.705 134.17C104.055 134.276 103.401 134.376 102.745 134.473L102.636 133.731C102.31 133.779 101.983 133.826 101.655 133.872L101.759 134.614C101.109 134.705 100.456 134.792 99.8 134.874L99.7068 134.13C99.3805 134.17 99.0535 134.21 98.7257 134.249L98.8137 134.994C98.16 135.071 97.5033 135.144 96.8438 135.213L96.7662 134.467C96.4403 134.5 96.1137 134.533 95.7865 134.565L95.8589 135.312C95.2011 135.375 94.5406 135.435 93.8774 135.49L93.8153 134.743C93.4898 134.77 93.1638 134.796 92.8371 134.821L92.8942 135.569C92.2375 135.619 91.5782 135.665 90.9166 135.706L90.8695 134.958C90.5404 134.978 90.2106 134.998 89.8803 135.016L89.9223 135.765C89.2665 135.802 88.6084 135.835 87.9481 135.863L87.916 135.113C87.5877 135.127 87.2589 135.14 86.9295 135.152L86.9566 135.902C86.2975 135.926 85.6362 135.945 84.9729 135.96L84.9557 135.211C84.6283 135.218 84.3004 135.224 83.972 135.23L83.9843 135.98C83.3242 135.991 82.6622 135.997 81.9983 135.999L81.9958 135.249C81.9505 135.249 81.9051 135.249 81.8597 135.25C81.8493 135.25 81.8388 135.25 81.8283 135.25C81.7189 135.25 81.6095 135.25 81.5 135.25C81.3346 135.25 81.1693 135.25 81.0042 135.249L81.0017 135.999C80.3378 135.997 79.6758 135.991 79.0157 135.98L79.028 135.23C78.6996 135.224 78.3717 135.218 78.0443 135.211L78.0271 135.96C77.3638 135.945 76.7026 135.926 76.0435 135.902L76.0705 135.152C75.7411 135.14 75.4123 135.127 75.084 135.113L75.0519 135.863C74.3916 135.835 73.7335 135.802 73.0777 135.765L73.1197 135.016C72.7894 134.998 72.4596 134.978 72.1305 134.958L72.0835 135.706C71.4218 135.665 70.7625 135.619 70.1058 135.569L70.1629 134.821C69.8362 134.796 69.5102 134.77 69.1847 134.743L69.1226 135.49C68.4594 135.435 67.7989 135.375 67.1411 135.312L67.2135 134.565C66.8863 134.533 66.5597 134.5 66.2338 134.467L66.1562 135.213C65.4967 135.144 64.84 135.071 64.1863 134.994L64.2743 134.249C63.9465 134.21 63.6195 134.17 63.2932 134.13L63.2 134.874C62.544 134.792 61.891 134.705 61.2411 134.614L61.3448 133.872C61.0172 133.826 60.6904 133.779 60.3644 133.731L60.2553 134.473C59.5987 134.376 58.9453 134.276 58.2953 134.17L58.4151 133.43C58.0919 133.378 57.7696 133.324 57.4481 133.27L57.3228 134.009C56.666 133.898 56.0128 133.782 55.3632 133.662L55.4994 132.925C55.1763 132.865 54.8541 132.804 54.5329 132.743L54.3911 133.479C53.7391 133.353 53.0908 133.224 52.4465 133.089L52.5995 132.355C52.2766 132.288 51.9548 132.219 51.6339 132.15L51.4752 132.883C50.8283 132.743 50.1855 132.598 49.5469 132.45L49.7171 131.719C49.3946 131.644 49.0732 131.568 48.753 131.491L48.577 132.22C47.9325 132.064 47.2925 131.904 46.6569 131.74L46.8447 131.014C46.526 130.931 46.2084 130.848 45.892 130.763L45.6983 131.488C45.0553 131.316 44.4171 131.139 43.7837 130.958L43.9897 130.237C43.675 130.147 43.3617 130.056 43.0495 129.964L42.8374 130.684C42.1977 130.495 41.5631 130.302 40.9337 130.105L41.1584 129.389C40.8452 129.291 40.5334 129.191 40.2229 129.091L39.9919 129.804C39.3588 129.599 38.7313 129.39 38.1094 129.176L38.3534 128.467C38.0421 128.359 37.7322 128.251 37.4237 128.142L37.1731 128.849C36.5473 128.627 35.9274 128.4 35.3136 128.17L35.5777 127.468C35.2686 127.351 34.961 127.234 34.6551 127.115L34.3841 127.815C33.7661 127.575 33.1545 127.331 32.5495 127.083L32.8345 126.389C32.5281 126.263 32.2234 126.136 31.9205 126.008L31.6283 126.698C31.0175 126.44 30.4137 126.177 29.817 125.91L30.1238 125.225C29.822 125.09 29.5221 124.954 29.224 124.816L28.9097 125.497C28.306 125.218 27.7098 124.935 27.1213 124.647L27.451 123.973C27.1555 123.828 26.862 123.683 26.5706 123.536L26.233 124.206C25.6378 123.906 25.0508 123.601 24.4722 123.291L24.8259 122.63C24.5371 122.475 24.2504 122.32 23.9659 122.163L23.6039 122.82C23.019 122.498 22.443 122.17 21.8762 121.838L22.2552 121.191C21.9734 121.026 21.694 120.86 21.4169 120.693L21.0292 121.335C20.4566 120.989 19.8939 120.638 19.3412 120.283L19.7469 119.652C19.4727 119.476 19.2011 119.298 18.9321 119.119L18.5172 119.744C17.9595 119.374 17.4126 118.999 16.8767 118.618L17.3107 118.007C17.0449 117.818 16.7819 117.628 16.5217 117.438L16.078 118.042C15.5383 117.646 15.0104 117.245 14.4946 116.839L14.9583 116.25C14.702 116.048 14.4487 115.845 14.1985 115.641L13.7244 116.222C13.2062 115.8 12.701 115.372 12.2089 114.939L12.7042 114.376C12.4587 114.16 12.2165 113.943 11.9778 113.725L11.4717 114.278C10.9792 113.828 10.501 113.372 10.0372 112.912L10.5656 112.38C10.3328 112.148 10.1038 111.916 9.87862 111.682L9.33874 112.203C8.87661 111.724 8.43001 111.239 7.99933 110.75L8.56234 110.255C8.34511 110.008 8.13208 109.76 7.92328 109.511L7.3484 109.992C6.9202 109.481 6.50921 108.965 6.11582 108.444L6.71446 107.992C6.5178 107.731 6.3257 107.47 6.13821 107.207L5.5276 107.642C5.14014 107.099 4.77166 106.55 4.42261 105.997L5.05696 105.597C4.88415 105.323 4.71628 105.048 4.5534 104.772L3.90738 105.153C3.56841 104.578 3.25028 103.998 2.95346 103.413L3.62222 103.074C3.47641 102.787 3.33594 102.498 3.20085 102.209L2.52127 102.526C2.23949 101.923 1.98031 101.314 1.74425 100.701L2.44416 100.432C2.32812 100.13 2.21787 99.8279 2.11345 99.5245L1.40427 99.7685C1.18838 99.1412 0.996607 98.5092 0.829486 97.8729L1.55488 97.6824C1.4732 97.3714 1.3976 97.0594 1.32815 96.7464L0.595961 96.9089C0.452691 96.2633 0.33474 95.6135 0.242664 94.9597L0.985336 94.8551C0.940639 94.5377 0.902233 94.2194 0.870184 93.9002L0.123935 93.9751C0.0581186 93.3196 0.0182854 92.6603 0.00498847 91.9975L0.754838 91.9825C0.751615 91.8219 0.75 91.661 0.75 91.5C0.75 91.339 0.751615 91.1782 0.754837 91.0175L0.00498816 91.0025C0.0182846 90.3397 0.0581174 89.6804 0.123934 89.0249L0.870182 89.0998C0.902231 88.7806 0.940637 88.4623 0.985334 88.1449L0.242662 88.0403C0.334737 87.3865 0.452688 86.7367 0.595957 86.0911L1.32814 86.2536C1.3976 85.9406 1.47319 85.6286 1.55488 85.3176L0.829482 85.1271C0.996603 84.4908 1.18838 83.8588 1.40426 83.2315L2.11345 83.4755C2.21786 83.1721 2.32812 82.8697 2.44416 82.5683L1.74425 82.2989C1.98031 81.6858 2.23949 81.0773 2.52126 80.4738L3.20084 80.7911C3.33593 80.5017 3.47641 80.2134 3.62222 79.9262L2.95345 79.5867C3.25027 79.002 3.56841 78.4221 3.90737 77.8474L4.5534 78.2283C4.71628 77.9522 4.88414 77.6771 5.05695 77.4031L4.4226 77.003C4.77165 76.4496 5.14013 75.9011 5.52759 75.3579L6.1382 75.7934C6.32569 75.5305 6.51779 75.2687 6.71445 75.0082L6.11582 74.5563C6.5092 74.0351 6.9202 73.5189 7.34839 73.0078L7.92328 73.4895C8.13207 73.2403 8.34511 72.9922 8.56234 72.7454L7.99933 72.2499C8.43001 71.7605 8.8766 71.2762 9.33873 70.7969L9.87861 71.3175C10.1038 71.084 10.3328 70.8516 10.5656 70.6205L10.0372 70.0883C10.501 69.6278 10.9792 69.1723 11.4717 68.7219L11.9778 69.2753C12.2165 69.057 12.4587 68.8399 12.7042 68.6239L12.2089 68.0608C12.701 67.628 13.2062 67.2002 13.7244 66.7776L14.1984 67.3588C14.4486 67.1547 14.702 66.9517 14.9583 66.75L14.4946 66.1606C15.0104 65.7547 15.5383 65.3537 16.078 64.9577L16.5217 65.5625C16.7819 65.3716 17.0449 65.1818 17.3107 64.9933L16.8767 64.3816C17.4126 64.0014 17.9595 63.6261 18.5172 63.2558L18.932 63.8806C19.2011 63.702 19.4727 63.5244 19.7469 63.3481L19.3412 62.7173C19.8939 62.3618 20.4566 62.0111 21.0292 61.6654L21.4169 62.3074C21.694 62.14 21.9734 61.9739 22.2552 61.8088L21.8762 61.1616C22.443 60.8297 23.019 60.5025 23.6039 60.1802L23.9659 60.837C24.2504 60.6802 24.5371 60.5246 24.8259 60.3701L24.4722 59.7087C25.0508 59.3993 25.6378 59.0945 26.233 58.7945L26.5706 59.4642C26.862 59.3173 27.1555 59.1715 27.451 59.0269L27.1213 58.3533C27.7098 58.0653 28.306 57.7819 28.9097 57.5032L29.224 58.1841C29.5221 58.0465 29.822 57.91 30.1238 57.7747L29.817 57.0904C30.4137 56.8229 31.0175 56.5599 31.6283 56.3015L31.9205 56.9923C32.2234 56.8641 32.5281 56.7371 32.8345 56.6112L32.5495 55.9175C33.1545 55.6689 33.7661 55.4249 34.3841 55.1854L34.6551 55.8848C34.961 55.7662 35.2686 55.6488 35.5777 55.5325L35.3136 54.8305C35.9274 54.5996 36.5473 54.3731 37.1731 54.1512L37.4237 54.8581C37.7322 54.7488 38.0421 54.6405 38.3534 54.5334L38.1094 53.8242C38.7313 53.6102 39.3588 53.4007 39.9919 53.1957L40.2229 53.9093C40.5334 53.8088 40.8452 53.7093 41.1584 53.611L40.9337 52.8955C41.563 52.6979 42.1977 52.5047 42.8374 52.3162L43.0495 53.0356C43.3616 52.9435 43.675 52.8526 43.9897 52.7628L43.7837 52.0416C44.4171 51.8607 45.0553 51.6843 45.6983 51.5124L45.892 52.2369C46.2084 52.1523 46.526 52.0688 46.8447 51.9863L46.6569 51.2602C47.2925 51.0959 47.9325 50.9359 48.577 50.7803L48.753 51.5094C49.0732 51.4321 49.3946 51.3558 49.7171 51.2807L49.5469 50.5503C50.1855 50.4015 50.8283 50.2571 51.4752 50.1171L51.6339 50.8501C51.9548 50.7806 52.2766 50.7122 52.5995 50.645L52.4465 49.9107C53.0908 49.7765 53.739 49.6465 54.3911 49.521L54.5329 50.2575C54.8541 50.1956 55.1763 50.1349 55.4994 50.0752L55.3632 49.3376C56.0127 49.2176 56.666 49.102 57.3228 48.9907L57.4481 49.7302C57.7695 49.6757 58.0919 49.6223 58.4151 49.57L58.2953 48.8297C58.9453 48.7244 59.5987 48.6235 60.2553 48.527L60.3644 49.269C60.6904 49.2211 61.0172 49.1742 61.3448 49.1285L61.2411 48.3857C61.891 48.2949 62.544 48.2084 63.2 48.1262L63.2932 48.8704C63.6195 48.8295 63.9465 48.7897 64.2743 48.751L64.1863 48.0062C64.84 47.929 65.4967 47.856 66.1562 47.7874L66.2338 48.5334C66.5597 48.4995 66.8863 48.4667 67.2135 48.4349L67.1411 47.6884C67.7989 47.6246 68.4594 47.5651 69.1226 47.5099L69.1847 48.2573C69.5102 48.2302 69.8362 48.2042 70.1629 48.1793L70.1058 47.4314C70.7625 47.3813 71.4218 47.3354 72.0834 47.2938L72.1305 48.0424C72.4596 48.0217 72.7894 48.0021 73.1197 47.9836L73.0777 47.2347C73.7335 47.198 74.3916 47.1655 75.0519 47.1372L75.084 47.8866C75.4123 47.8725 75.7411 47.8596 76.0705 47.8477L76.0434 47.0982C76.7026 47.0744 77.3638 47.0549 78.0271 47.0397L78.0443 47.7895C78.3717 47.782 78.6996 47.7755 79.028 47.7702L79.0157 47.0203C79.6758 47.0095 80.3378 47.003 81.0017 47.0008L81.0042 47.7508C81.1693 47.7503 81.3346 47.75 81.5 47.75C81.6654 47.75 81.8307 47.7503 81.9958 47.7508L81.9983 47.0008C82.6622 47.003 83.3242 47.0095 83.9843 47.0203L83.972 47.7702C84.3004 47.7755 84.6283 47.782 84.9557 47.7895L84.9729 47.0397C85.6362 47.0549 86.2974 47.0744 86.9565 47.0982L86.9295 47.8477C87.2589 47.8596 87.5877 47.8725 87.916 47.8866L87.9481 47.1372C88.6084 47.1655 89.2665 47.198 89.9223 47.2347L89.8803 47.9836C90.2106 48.0021 90.5404 48.0217 90.8695 48.0423L90.9165 47.2938C91.5782 47.3354 92.2375 47.3813 92.8942 47.4314L92.8371 48.1793C93.1638 48.2042 93.4898 48.2302 93.8153 48.2573L93.8774 47.5099C94.5406 47.5651 95.2011 47.6246 95.8589 47.6884L95.7865 48.4349C96.1137 48.4667 96.4403 48.4995 96.7662 48.5334L96.8438 47.7874C97.5033 47.856 98.16 47.929 98.8137 48.0062L98.7257 48.751C99.0535 48.7897 99.3805 48.8295 99.7068 48.8704L99.8 48.1262C100.456 48.2084 101.109 48.2949 101.759 48.3857L101.655 49.1285C101.983 49.1742 102.31 49.2211 102.636 49.269L102.745 48.527C103.401 48.6235 104.055 48.7244 104.705 48.8297L104.585 49.57C104.908 49.6223 105.23 49.6757 105.552 49.7302L105.677 48.9907C106.334 49.102 106.987 49.2176 107.637 49.3376L107.501 50.0752C107.824 50.1349 108.146 50.1956 108.467 50.2575L108.609 49.521C109.261 49.6465 109.909 49.7765 110.554 49.9107L110.401 50.645C110.723 50.7122 111.045 50.7806 111.366 50.8501L111.525 50.1171C112.172 50.2571 112.814 50.4015 113.453 50.5503L113.283 51.2807C113.605 51.3558 113.927 51.4321 114.247 51.5094L114.423 50.7803C115.067 50.9359 115.708 51.0959 116.343 51.2602L116.155 51.9863C116.474 52.0688 116.792 52.1523 117.108 52.2369L117.302 51.5124C117.945 51.6843 118.583 51.8607 119.216 52.0416L119.01 52.7628C119.325 52.8526 119.638 52.9435 119.951 53.0355L120.163 52.3162C120.802 52.5047 121.437 52.6979 122.066 52.8955L121.842 53.611C122.155 53.7093 122.467 53.8088 122.777 53.9093L123.008 53.1957C123.641 53.4007 124.269 53.6102 124.891 53.8242L124.647 54.5334C124.958 54.6405 125.268 54.7488 125.576 54.8581L125.827 54.1512C126.453 54.3731 127.073 54.5996 127.686 54.8305L127.422 55.5325C127.731 55.6488 128.039 55.7662 128.345 55.8847L128.616 55.1854C129.234 55.4249 129.845 55.6689 130.451 55.9175L130.166 56.6112C130.472 56.7371 130.777 56.8641 131.08 56.9922L131.372 56.3015C131.982 56.5599 132.586 56.8228 133.183 57.0904L132.876 57.7747C133.178 57.91 133.478 58.0465 133.776 58.1841L134.09 57.5032C134.694 57.7818 135.29 58.0653 135.879 58.3533L135.549 59.0269C135.844 59.1715 136.138 59.3173 136.429 59.4642L136.767 58.7945C137.362 59.0945 137.949 59.3993 138.528 59.7087L138.174 60.3701C138.463 60.5246 138.75 60.6802 139.034 60.837L139.396 60.1802C139.981 60.5025 140.557 60.8297 141.124 61.1616L140.745 61.8088C141.027 61.9738 141.306 62.14 141.583 62.3074L141.971 61.6654C142.543 62.0111 143.106 62.3618 143.659 62.7173L143.253 63.3481C143.527 63.5244 143.799 63.702 144.068 63.8806L144.483 63.2558C145.04 63.6261 145.587 64.0014 146.123 64.3816L145.689 64.9933C145.955 65.1818 146.218 65.3716 146.478 65.5624L146.922 64.9577C147.462 65.3537 147.99 65.7547 148.505 66.1606L148.042 66.75C148.298 66.9517 148.551 67.1547 148.802 67.3587L149.276 66.7776C149.794 67.2002 150.299 67.628 150.791 68.0607L150.296 68.6239C150.541 68.8399 150.783 69.057 151.022 69.2753L151.528 68.7219C152.021 69.1723 152.499 69.6278 152.963 70.0883L152.434 70.6205C152.667 70.8516 152.896 71.084 153.121 71.3175L153.661 70.7969C154.123 71.2761 154.57 71.7605 155.001 72.2499L154.438 72.7454C154.655 72.9922 154.868 73.2403 155.077 73.4895L155.652 73.0078C156.08 73.5189 156.491 74.0351 156.884 74.5563L156.286 75.0082C156.482 75.2687 156.674 75.5305 156.862 75.7933L157.472 75.3579C157.86 75.9011 158.228 76.4496 158.577 77.003L157.943 77.4031C158.116 77.677 158.284 77.9521 158.447 78.2283L159.093 77.8473C159.432 78.4221 159.75 79.002 160.047 79.5867L159.378 79.9262C159.524 80.2134 159.664 80.5017 159.799 80.7911L160.479 80.4738C160.76 81.0773 161.02 81.6857 161.256 82.2988L160.556 82.5683C160.672 82.8697 160.782 83.1721 160.887 83.4755L161.596 83.2315C161.812 83.8588 162.003 84.4908 162.171 85.1271L161.445 85.3176C161.527 85.6286 161.602 85.9406 161.672 86.2536L162.404 86.0911C162.547 86.7367 162.665 87.3865 162.757 88.0403L162.015 88.1449C162.059 88.4623 162.098 88.7806 162.13 89.0998L162.876 89.0249Z" stroke="#CCF2DB" stroke-width="1.5" stroke-dasharray="1 2"/>
<path opacity="0.5" d="M162.88 75.0086C162.944 75.6685 162.982 76.3322 162.995 76.9992L162.245 77.0137C162.248 77.1756 162.25 77.3377 162.25 77.5C162.25 77.6623 162.248 77.8244 162.245 77.9863L162.995 78.0008C162.982 78.6679 162.944 79.3315 162.88 79.9914L162.133 79.9192C162.102 80.2411 162.065 80.5622 162.022 80.8822L162.765 80.983C162.675 81.6418 162.561 82.2966 162.422 82.9473L161.689 82.7905C161.621 83.1064 161.548 83.4213 161.468 83.7353L162.195 83.9192C162.033 84.5615 161.846 85.1995 161.636 85.833L160.924 85.5969C160.823 85.9042 160.715 86.2104 160.602 86.5155L161.305 86.7764C161.075 87.3962 160.822 88.0113 160.548 88.6216L159.864 88.3138C159.732 88.6078 159.594 88.9007 159.451 89.1925L160.125 89.5223C159.834 90.1157 159.523 90.7044 159.191 91.2879L158.539 90.917C158.38 91.1973 158.215 91.4765 158.046 91.7546L158.687 92.1445C158.344 92.7077 157.982 93.266 157.601 93.819L156.983 93.3937C156.799 93.661 156.611 93.927 156.418 94.1919L157.024 94.6336C156.637 95.1655 156.232 95.6924 155.809 96.2141L155.226 95.7423C155.021 95.996 154.811 96.2485 154.598 96.4999L155.169 96.9857C154.744 97.4863 154.302 97.9819 153.845 98.4723L153.296 97.9609C153.073 98.2009 152.845 98.4397 152.614 98.6773L153.151 99.2005C152.693 99.6707 152.221 100.136 151.735 100.596L151.219 100.051C150.982 100.276 150.74 100.5 150.496 100.722L151 101.277C150.513 101.72 150.013 102.157 149.5 102.589L149.017 102.016C148.767 102.227 148.514 102.436 148.258 102.644L148.731 103.226C148.22 103.642 147.697 104.053 147.161 104.458L146.708 103.861C146.448 104.058 146.185 104.254 145.919 104.449L146.362 105.054C145.83 105.444 145.287 105.828 144.733 106.208L144.309 105.59C144.039 105.775 143.767 105.958 143.492 106.141L143.907 106.766C143.357 107.13 142.798 107.491 142.228 107.846L141.831 107.209C141.553 107.382 141.273 107.554 140.99 107.725L141.378 108.367C140.813 108.708 140.24 109.045 139.657 109.376L139.286 108.724C139 108.887 138.713 109.048 138.422 109.208L138.785 109.865C138.208 110.183 137.622 110.496 137.028 110.805L136.682 110.14C136.39 110.292 136.095 110.443 135.798 110.593L136.136 111.262C135.548 111.559 134.953 111.851 134.35 112.138L134.027 111.461C133.729 111.603 133.428 111.744 133.125 111.884L133.44 112.565C132.843 112.841 132.238 113.112 131.627 113.379L131.327 112.691C131.024 112.823 130.72 112.954 130.413 113.084L130.706 113.774C130.099 114.032 129.485 114.284 128.865 114.532L128.586 113.835C128.28 113.957 127.973 114.079 127.663 114.198L127.934 114.898C127.318 115.137 126.696 115.371 126.067 115.601L125.81 114.896C125.501 115.009 125.191 115.121 124.879 115.231L125.13 115.938C124.505 116.16 123.875 116.376 123.239 116.588L123.001 115.877C122.69 115.981 122.378 116.083 122.064 116.185L122.295 116.898C121.663 117.103 121.025 117.303 120.382 117.498L120.165 116.78C119.851 116.875 119.537 116.969 119.221 117.062L119.433 117.782C118.797 117.969 118.157 118.151 117.512 118.328L117.313 117.605C116.994 117.693 116.674 117.78 116.353 117.865L116.546 118.59C115.909 118.76 115.266 118.925 114.619 119.086L114.438 118.358C114.117 118.438 113.794 118.517 113.471 118.595L113.646 119.324C113.003 119.478 112.357 119.628 111.706 119.773L111.543 119.041C111.221 119.112 110.897 119.183 110.573 119.253L110.73 119.986C110.082 120.125 109.43 120.26 108.774 120.39L108.628 119.654C108.306 119.718 107.982 119.781 107.657 119.843L107.797 120.579C107.144 120.704 106.488 120.823 105.827 120.938L105.699 120.2C105.375 120.256 105.051 120.311 104.725 120.366L104.849 121.105C104.195 121.214 103.538 121.319 102.878 121.419L102.766 120.677C102.438 120.727 102.109 120.775 101.779 120.823L101.886 121.565C101.232 121.659 100.575 121.749 99.9156 121.834L99.8197 121.09C99.4916 121.132 99.1628 121.173 98.8333 121.213L98.9238 121.958C98.2658 122.038 97.6049 122.113 96.9411 122.184L96.8612 121.439C96.5335 121.474 96.205 121.508 95.8759 121.541L95.9504 122.287C95.2886 122.353 94.624 122.415 93.9568 122.472L93.8928 121.725C93.5653 121.753 93.2371 121.78 92.9082 121.805L92.967 122.553C92.3063 122.605 91.643 122.653 90.9773 122.696L90.9289 121.947C90.5977 121.969 90.266 121.989 89.9337 122.008L89.9769 122.757C89.3167 122.795 88.6543 122.829 87.9896 122.858L87.9566 122.109C87.6263 122.123 87.2954 122.137 86.964 122.149L86.9918 122.898C86.3284 122.923 85.6629 122.943 84.9952 122.959L84.9776 122.209C84.6481 122.217 84.3182 122.224 83.9877 122.229L84.0003 122.979C83.336 122.99 82.6697 122.997 82.0015 122.999L81.999 122.249C81.9523 122.249 81.9057 122.249 81.859 122.25C81.8482 122.25 81.8375 122.25 81.8267 122.25C81.7178 122.25 81.609 122.25 81.5 122.25C81.449 122.25 81.398 122.25 81.3471 122.25C81.2317 122.25 81.1163 122.25 81.001 122.249L80.9985 122.999C80.3303 122.997 79.664 122.99 78.9997 122.979L79.0123 122.229C78.6818 122.224 78.3519 122.217 78.0224 122.209L78.0048 122.959C77.3371 122.943 76.6716 122.923 76.0082 122.898L76.036 122.149C75.7046 122.137 75.3737 122.123 75.0434 122.109L75.0104 122.858C74.3457 122.829 73.6833 122.795 73.0231 122.757L73.0663 122.008C72.734 121.989 72.4023 121.969 72.0711 121.947L72.0227 122.696C71.357 122.653 70.6937 122.605 70.033 122.553L70.0918 121.805C69.7629 121.78 69.4347 121.753 69.1072 121.725L69.0432 122.472C68.376 122.415 67.7114 122.353 67.0496 122.287L67.1241 121.541C66.795 121.508 66.4665 121.474 66.1388 121.439L66.0589 122.184C65.3951 122.113 64.7342 122.038 64.0762 121.958L64.1667 121.213C63.8372 121.173 63.5084 121.132 63.1803 121.09L63.0844 121.834C62.4246 121.749 61.7679 121.659 61.1144 121.565L61.2212 120.823C60.8913 120.775 60.5622 120.727 60.234 120.677L60.1218 121.419C59.4616 121.319 58.8048 121.214 58.1515 121.105L58.2748 120.366C57.9494 120.311 57.625 120.256 57.3014 120.2L57.1726 120.938C56.5122 120.823 55.8555 120.704 55.2025 120.579L55.3427 119.843C55.0181 119.781 54.6944 119.718 54.3717 119.654L54.2258 120.39C53.5698 120.26 52.9177 120.125 52.2696 119.986L52.4269 119.253C52.1027 119.183 51.7795 119.112 51.4573 119.041L51.2941 119.773C50.6434 119.628 49.9968 119.478 49.3544 119.324L49.5293 118.595C49.2057 118.517 48.8831 118.438 48.5617 118.358L48.3808 119.086C47.7339 118.925 47.0915 118.76 46.4536 118.59L46.6466 117.865C46.3256 117.78 46.0057 117.693 45.687 117.605L45.4879 118.329C44.8428 118.151 44.2026 117.969 43.5673 117.782L43.779 117.062C43.4632 116.969 43.1487 116.875 42.8354 116.78L42.6175 117.498C41.9749 117.303 41.3375 117.103 40.7054 116.898L40.9362 116.185C40.6223 116.083 40.3098 115.981 39.9987 115.877L39.7614 116.588C39.1254 116.376 38.4951 116.16 37.8705 115.938L38.1211 115.231C37.8093 115.121 37.4989 115.009 37.1901 114.896L36.9327 115.601C36.3043 115.371 35.6819 115.137 35.0656 114.898L35.3368 114.199C35.0274 114.079 34.7197 113.957 34.4136 113.835L34.1354 114.532C33.5151 114.284 32.9014 114.032 32.2942 113.774L32.5867 113.084C32.2804 112.954 31.9758 112.823 31.673 112.691L31.3732 113.379C30.7618 113.112 30.1575 112.841 29.5603 112.565L29.8749 111.884C29.5723 111.744 29.2715 111.603 28.9726 111.461L28.6502 112.138C28.0473 111.851 27.4519 111.559 26.8644 111.262L27.2023 110.593C26.9053 110.443 26.6104 110.292 26.3175 110.14L25.9716 110.805C25.3778 110.496 24.7923 110.183 24.2153 109.865L24.5776 109.208C24.2875 109.048 23.9996 108.887 23.7139 108.724L23.3432 109.376C22.7604 109.045 22.1866 108.708 21.6221 108.367L22.01 107.725C21.7273 107.554 21.4469 107.382 21.1689 107.209L20.7721 107.846C20.2025 107.491 19.6427 107.13 19.093 106.766L19.5079 106.141C19.2331 105.958 18.9609 105.775 18.6913 105.59L18.2671 106.208C17.7132 105.828 17.1701 105.444 16.6379 105.054L17.0811 104.449C16.8151 104.254 16.552 104.058 16.2917 103.861L15.8387 104.458C15.3035 104.053 14.7801 103.642 14.2687 103.226L14.7418 102.644C14.4857 102.436 14.2328 102.227 13.983 102.016L13.4995 102.589C12.9867 102.157 12.4867 101.72 11.9999 101.277L12.5044 100.722C12.2597 100.5 12.0185 100.276 11.7807 100.051L11.2654 100.596C10.779 100.136 10.3067 99.6707 9.84877 99.2005L10.3861 98.6773C10.1548 98.4397 9.92725 98.2009 9.70358 97.9609L9.15492 98.4723C8.6979 97.9819 8.25641 97.4863 7.83081 96.9857L8.40222 96.4999C8.18854 96.2485 7.97901 95.996 7.77366 95.7423L7.19066 96.2141C6.76849 95.6924 6.36343 95.1655 5.97587 94.6336L6.58204 94.1919C6.38903 93.927 6.20052 93.661 6.01655 93.3937L5.3988 93.819C5.01804 93.266 4.65606 92.7077 4.31332 92.1445L4.95401 91.7546C4.7848 91.4765 4.62045 91.1973 4.46099 90.917L3.8091 91.2879C3.47713 90.7044 3.16567 90.1157 2.87519 89.5223L3.54883 89.1925C3.40599 88.9007 3.26841 88.6078 3.13612 88.3138L2.45218 88.6216C2.17757 88.0113 1.92505 87.3962 1.6951 86.7764L2.39826 86.5155C2.28504 86.2104 2.17747 85.9042 2.07562 85.5969L1.36372 85.8329C1.15373 85.1995 0.967238 84.5615 0.804773 83.9192L1.53188 83.7353C1.45247 83.4213 1.37898 83.1064 1.31148 82.7905L0.578039 82.9472C0.438998 82.2966 0.324551 81.6418 0.235229 80.983L0.978429 80.8822C0.935028 80.5621 0.897739 80.2411 0.866624 79.9192L0.120103 79.9914C0.0563178 79.3315 0.0177191 78.6678 0.00483412 78.0008L0.754694 77.9863C0.751567 77.8244 0.75 77.6623 0.75 77.5C0.75 77.3377 0.751568 77.1756 0.754694 77.0137L0.00483434 76.9992C0.0177196 76.3321 0.0563188 75.6685 0.120105 75.0086L0.866625 75.0808C0.89774 74.7589 0.935029 74.4378 0.97843 74.1178L0.23523 74.017C0.324552 73.3582 0.439 72.7034 0.578042 72.0527L1.31148 72.2095C1.37899 71.8936 1.45247 71.5787 1.53188 71.2647L0.804775 71.0808C0.967241 70.4385 1.15373 69.8005 1.36372 69.167L2.07562 69.4031C2.17748 69.0958 2.28504 68.7896 2.39826 68.4845L1.6951 68.2236C1.92505 67.6038 2.17758 66.9887 2.45218 66.3784L3.13613 66.6862C3.26841 66.3922 3.40599 66.0993 3.54883 65.8075L2.87519 65.4777C3.16567 64.8843 3.47713 64.2956 3.8091 63.7121L4.46099 64.083C4.62045 63.8027 4.7848 63.5235 4.95401 63.2454L4.31332 62.8555C4.65606 62.2923 5.01804 61.734 5.3988 61.181L6.01655 61.6063C6.20052 61.339 6.38903 61.073 6.58204 60.8081L5.97587 60.3664C6.36343 59.8345 6.76849 59.3076 7.19066 58.7859L7.77366 59.2577C7.97901 59.004 8.18854 58.7515 8.40222 58.5001L7.83081 58.0143C8.25641 57.5137 8.6979 57.0181 9.15492 56.5277L9.70358 57.0391C9.92725 56.7991 10.1548 56.5603 10.3861 56.3227L9.84876 55.7995C10.3067 55.3293 10.779 54.8641 11.2654 54.4041L11.7807 54.949C12.0185 54.7241 12.2597 54.5004 12.5044 54.278L11.9999 53.723C12.4867 53.2805 12.9867 52.8429 13.4995 52.4106L13.983 52.984C14.2328 52.7734 14.4857 52.564 14.7418 52.3558L14.2687 51.7738C14.7801 51.3581 15.3035 50.9474 15.8387 50.5418L16.2917 51.1395C16.552 50.9422 16.8151 50.7461 17.0811 50.5513L16.6379 49.9463C17.17 49.5564 17.7132 49.1715 18.2671 48.7917L18.6913 49.4103C18.9608 49.2254 19.2331 49.0418 19.5079 48.8593L19.093 48.2345C19.6427 47.8695 20.2025 47.5094 20.7721 47.1544L21.1689 47.7909C21.4468 47.6176 21.7272 47.4455 22.01 47.2746L21.6221 46.6327C22.1866 46.2916 22.7604 45.9553 23.3431 45.6239L23.7139 46.2759C23.9995 46.1135 24.2875 45.9522 24.5776 45.7921L24.2153 45.1355C24.7923 44.8171 25.3778 44.5035 25.9715 44.1949L26.3175 44.8603C26.6104 44.708 26.9053 44.557 27.2023 44.4071L26.8644 43.7375C27.4519 43.441 28.0473 43.1492 28.6502 42.8622L28.9725 43.5394C29.2714 43.3971 29.5722 43.256 29.8749 43.1161L29.5603 42.4353C30.1574 42.1593 30.7618 41.8879 31.3731 41.6213L31.6729 42.3088C31.9758 42.1768 32.2803 42.0459 32.5867 41.9162L32.2942 41.2255C32.9013 40.9684 33.5151 40.716 34.1354 40.4683L34.4136 41.1648C34.7197 41.0425 35.0274 40.9214 35.3367 40.8015L35.0656 40.1022C35.6818 39.8633 36.3043 39.629 36.9327 39.3994L37.1901 40.1039C37.4989 39.991 37.8093 39.8794 38.1211 39.7688L37.8705 39.0619C38.4951 38.8405 39.1254 38.6237 39.7614 38.4116L39.9987 39.123C40.3098 39.0193 40.6223 38.9166 40.9362 38.8151L40.7054 38.1015C41.3374 37.8971 41.9749 37.6973 42.6175 37.5022L42.8354 38.2198C43.1487 38.1247 43.4632 38.0307 43.7789 37.9378L43.5673 37.2183C44.2026 37.0315 44.8428 36.8492 45.4878 36.6715L45.687 37.3946C46.0057 37.3068 46.3256 37.2202 46.6466 37.1347L46.4536 36.4099C47.0915 36.24 47.7339 36.0747 48.3808 35.9139L48.5617 36.6417C48.8831 36.5618 49.2057 36.483 49.5293 36.4054L49.3544 35.6761C49.9967 35.522 50.6433 35.3724 51.2941 35.2273L51.4573 35.9594C51.7795 35.8876 52.1027 35.8169 52.4269 35.7473L52.2695 35.014C52.9177 34.8749 53.5698 34.7403 54.2258 34.6103L54.3716 35.346C54.6944 35.282 55.018 35.2192 55.3427 35.1574L55.2025 34.4206C55.8555 34.2964 56.5122 34.1767 57.1726 34.0616L57.3014 34.8004C57.625 34.744 57.9494 34.6887 58.2748 34.6345L58.1515 33.8947C58.8048 33.7858 59.4616 33.6814 60.1217 33.5814L60.234 34.323C60.5622 34.2733 60.8913 34.2248 61.2211 34.1773L61.1144 33.435C61.7679 33.341 62.4246 33.2515 63.0844 33.1664L63.1803 33.9102C63.5084 33.8679 63.8372 33.8267 64.1667 33.7867L64.0762 33.0422C64.7342 32.9622 65.3951 32.8866 66.0589 32.8155L66.1388 33.5613C66.4665 33.5262 66.795 33.4922 67.1241 33.4593L67.0496 32.713C67.7114 32.6469 68.376 32.5853 69.0432 32.5281L69.1072 33.2754C69.4347 33.2473 69.7629 33.2204 70.0918 33.1945L70.033 32.4468C70.6937 32.3949 71.357 32.3474 72.0227 32.3043L72.0711 33.0528C72.4023 33.0314 72.734 33.0111 73.0663 32.9919L73.0231 32.2431C73.6833 32.2051 74.3457 32.1714 75.0104 32.1421L75.0434 32.8914C75.3737 32.8769 75.7046 32.8635 76.036 32.8512L76.0082 32.1017C76.6716 32.077 77.3371 32.0568 78.0048 32.0411L78.0224 32.7909C78.3519 32.7831 78.6818 32.7765 79.0123 32.7709L78.9997 32.021C79.664 32.0098 80.3303 32.0031 80.9985 32.0008L81.001 32.7508C81.1672 32.7503 81.3335 32.75 81.5 32.75C81.6665 32.75 81.8328 32.7503 81.999 32.7508L82.0015 32.0008C82.6697 32.0031 83.336 32.0098 84.0003 32.021L83.9877 32.7709C84.3182 32.7765 84.6481 32.7831 84.9776 32.7909L84.9952 32.0411C85.6629 32.0568 86.3284 32.077 86.9918 32.1017L86.964 32.8512C87.2954 32.8635 87.6263 32.8769 87.9566 32.8914L87.9896 32.1421C88.6543 32.1714 89.3167 32.2051 89.9769 32.2431L89.9337 32.9919C90.266 33.0111 90.5977 33.0314 90.9289 33.0528L90.9773 32.3043C91.643 32.3474 92.3063 32.3949 92.967 32.4468L92.9082 33.1945C93.2371 33.2204 93.5653 33.2473 93.8928 33.2754L93.9568 32.5281C94.624 32.5853 95.2886 32.6469 95.9504 32.713L95.8759 33.4593C96.205 33.4922 96.5335 33.5262 96.8612 33.5613L96.9411 32.8155C97.6049 32.8866 98.2658 32.9622 98.9238 33.0422L98.8333 33.7867C99.1628 33.8267 99.4916 33.8679 99.8197 33.9102L99.9156 33.1664C100.575 33.2515 101.232 33.341 101.886 33.435L101.779 34.1773C102.109 34.2248 102.438 34.2733 102.766 34.323L102.878 33.5814C103.538 33.6814 104.195 33.7858 104.849 33.8947L104.725 34.6345C105.051 34.6887 105.375 34.744 105.699 34.8004L105.827 34.0616C106.488 34.1767 107.144 34.2964 107.797 34.4206L107.657 35.1574C107.982 35.2192 108.306 35.282 108.628 35.346L108.774 34.6103C109.43 34.7403 110.082 34.8749 110.73 35.014L110.573 35.7473C110.897 35.8169 111.221 35.8876 111.543 35.9594L111.706 35.2273C112.357 35.3724 113.003 35.522 113.646 35.6761L113.471 36.4054C113.794 36.483 114.117 36.5618 114.438 36.6417L114.619 35.9139C115.266 36.0747 115.909 36.24 116.546 36.4099L116.353 37.1347C116.674 37.2202 116.994 37.3068 117.313 37.3946L117.512 36.6715C118.157 36.8492 118.797 37.0315 119.433 37.2183L119.221 37.9378C119.537 38.0307 119.851 38.1247 120.165 38.2198L120.382 37.5021C121.025 37.6973 121.663 37.8971 122.295 38.1015L122.064 38.8151C122.378 38.9166 122.69 39.0193 123.001 39.123L123.239 38.4116C123.875 38.6237 124.505 38.8405 125.13 39.0619L124.879 39.7688C125.191 39.8793 125.501 39.991 125.81 40.1039L126.067 39.3994C126.696 39.629 127.318 39.8633 127.934 40.1022L127.663 40.8015C127.973 40.9214 128.28 41.0425 128.586 41.1648L128.865 40.4683C129.485 40.716 130.099 40.9684 130.706 41.2255L130.413 41.9161C130.72 42.0459 131.024 42.1767 131.327 42.3088L131.627 41.6213C132.238 41.8879 132.843 42.1593 133.44 42.4353L133.125 43.1161C133.428 43.256 133.729 43.3971 134.027 43.5394L134.35 42.8622C134.953 43.1492 135.548 43.441 136.136 43.7375L135.798 44.4071C136.095 44.557 136.39 44.708 136.682 44.8603L137.028 44.1948C137.622 44.5035 138.208 44.8171 138.785 45.1354L138.422 45.7921C138.713 45.9522 139 46.1135 139.286 46.2759L139.657 45.6239C140.24 45.9553 140.813 46.2916 141.378 46.6327L140.99 47.2746C141.273 47.4455 141.553 47.6176 141.831 47.7909L142.228 47.1544C142.797 47.5094 143.357 47.8695 143.907 48.2345L143.492 48.8593C143.767 49.0418 144.039 49.2254 144.309 49.4103L144.733 48.7917C145.287 49.1715 145.83 49.5564 146.362 49.9462L145.919 50.5513C146.185 50.7461 146.448 50.9422 146.708 51.1395L147.161 50.5418C147.697 50.9474 148.22 51.3581 148.731 51.7738L148.258 52.3558C148.514 52.5639 148.767 52.7734 149.017 52.984L149.5 52.4105C150.013 52.8429 150.513 53.2805 151 53.723L150.496 54.278C150.74 54.5004 150.982 54.7241 151.219 54.949L151.735 54.4041C152.221 54.8641 152.693 55.3293 153.151 55.7995L152.614 56.3227C152.845 56.5603 153.073 56.7991 153.296 57.0391L153.845 56.5277C154.302 57.0181 154.744 57.5137 155.169 58.0143L154.598 58.5001C154.811 58.7515 155.021 59.004 155.226 59.2577L155.809 58.7859C156.232 59.3076 156.637 59.8345 157.024 60.3664L156.418 60.8081C156.611 61.073 156.799 61.339 156.983 61.6063L157.601 61.181C157.982 61.734 158.344 62.2923 158.687 62.8555L158.046 63.2454C158.215 63.5235 158.38 63.8027 158.539 64.083L159.191 63.7121C159.523 64.2956 159.834 64.8843 160.125 65.4777L159.451 65.8075C159.594 66.0993 159.732 66.3922 159.864 66.6862L160.548 66.3784C160.822 66.9887 161.075 67.6038 161.305 68.2236L160.602 68.4845C160.715 68.7896 160.823 69.0958 160.924 69.4031L161.636 69.167C161.846 69.8005 162.033 70.4385 162.195 71.0808L161.468 71.2647C161.548 71.5787 161.621 71.8936 161.689 72.2095L162.422 72.0528C162.561 72.7034 162.675 73.3582 162.765 74.017L162.022 74.1178C162.065 74.4379 162.102 74.7589 162.133 75.0808L162.88 75.0086Z" stroke="#CCF2DB" stroke-width="1.5" stroke-dasharray="1 2"/>
<path opacity="0.5" d="M162.882 102.5C162.945 103.163 162.983 103.828 162.995 104.498L162.245 104.512C162.248 104.674 162.25 104.837 162.25 105C162.25 105.163 162.248 105.326 162.245 105.488L162.995 105.502C162.983 106.172 162.945 106.837 162.882 107.5L162.135 107.429C162.104 107.752 162.068 108.074 162.025 108.396L162.768 108.495C162.68 109.156 162.568 109.813 162.431 110.466L161.697 110.312C161.63 110.63 161.557 110.946 161.479 111.262L162.207 111.442C162.047 112.088 161.863 112.729 161.656 113.365L160.943 113.133C160.842 113.442 160.736 113.75 160.624 114.057L161.329 114.314C161.102 114.937 160.852 115.555 160.581 116.169L159.895 115.866C159.764 116.162 159.628 116.457 159.487 116.751L160.163 117.076C159.875 117.674 159.567 118.267 159.238 118.855L158.584 118.489C158.426 118.771 158.263 119.052 158.096 119.332L158.74 119.717C158.4 120.285 158.041 120.848 157.664 121.406L157.042 120.986C156.86 121.255 156.673 121.524 156.482 121.791L157.092 122.227C156.707 122.765 156.305 123.297 155.886 123.824L155.299 123.357C155.096 123.613 154.888 123.867 154.676 124.121L155.251 124.602C154.828 125.108 154.389 125.609 153.935 126.105L153.382 125.598C153.16 125.841 152.934 126.082 152.704 126.322L153.246 126.841C152.79 127.317 152.32 127.787 151.836 128.253L151.316 127.712C151.079 127.94 150.838 128.167 150.594 128.393L151.103 128.944C150.618 129.391 150.121 129.834 149.611 130.271L149.123 129.701C148.873 129.915 148.621 130.128 148.365 130.339L148.842 130.917C148.333 131.338 147.812 131.754 147.279 132.164L146.822 131.57C146.561 131.77 146.298 131.969 146.032 132.167L146.48 132.769C145.95 133.164 145.408 133.553 144.856 133.938L144.428 133.323C144.158 133.511 143.885 133.697 143.61 133.883L144.03 134.505C143.481 134.874 142.923 135.239 142.355 135.599L141.954 134.965C141.675 135.141 141.395 135.316 141.111 135.49L141.504 136.129C140.94 136.475 140.368 136.816 139.786 137.152L139.411 136.502C139.125 136.668 138.836 136.832 138.546 136.995L138.912 137.649C138.336 137.972 137.751 138.29 137.158 138.603L136.808 137.939C136.515 138.094 136.219 138.248 135.921 138.401L136.263 139.068C135.676 139.369 135.081 139.665 134.479 139.956L134.153 139.281C133.854 139.425 133.553 139.568 133.251 139.71L133.569 140.389C132.971 140.67 132.366 140.946 131.754 141.217L131.45 140.531C131.148 140.665 130.843 140.798 130.537 140.929L130.833 141.619C130.225 141.88 129.61 142.137 128.989 142.388L128.707 141.693C128.401 141.818 128.093 141.94 127.783 142.062L128.058 142.76C127.441 143.003 126.817 143.241 126.187 143.475L125.927 142.772C125.618 142.886 125.307 143 124.995 143.112L125.249 143.818C124.623 144.043 123.991 144.263 123.354 144.479L123.113 143.769C122.802 143.874 122.489 143.978 122.175 144.081L122.409 144.794C121.776 145.002 121.138 145.205 120.494 145.403L120.274 144.686C119.959 144.783 119.643 144.879 119.327 144.973L119.541 145.692C118.905 145.882 118.264 146.067 117.618 146.248L117.416 145.525C117.096 145.615 116.775 145.703 116.453 145.79L116.648 146.514C116.009 146.687 115.366 146.855 114.718 147.018L114.534 146.291C114.212 146.372 113.889 146.452 113.565 146.531L113.742 147.26C113.098 147.417 112.449 147.569 111.797 147.717L111.631 146.985C111.308 147.058 110.985 147.13 110.66 147.201L110.819 147.934C110.169 148.075 109.515 148.212 108.857 148.344L108.709 147.609C108.386 147.674 108.061 147.738 107.736 147.801L107.878 148.537C107.224 148.664 106.565 148.785 105.903 148.902L105.773 148.164C105.448 148.221 105.122 148.278 104.796 148.333L104.921 149.072C104.266 149.183 103.607 149.289 102.945 149.391L102.832 148.65C102.502 148.7 102.173 148.749 101.842 148.798L101.95 149.54C101.294 149.635 100.636 149.727 99.9737 149.813L99.8764 149.07C99.5475 149.113 99.2178 149.154 98.8873 149.195L98.9791 149.94C98.319 150.021 97.6559 150.098 96.99 150.17L96.909 149.425C96.5803 149.46 96.2509 149.495 95.9208 149.528L95.9964 150.274C95.3327 150.342 94.6662 150.404 93.9969 150.463L93.932 149.715C93.6033 149.744 93.274 149.771 92.944 149.798L93.0036 150.545C92.3409 150.598 91.6756 150.647 91.0078 150.69L90.9587 149.942C90.6266 149.964 90.2938 149.984 89.9605 150.004L90.0043 150.753C89.342 150.791 88.6774 150.826 88.0105 150.855L87.9771 150.106C87.6457 150.121 87.3138 150.135 86.9813 150.147L87.0096 150.897C86.344 150.922 85.6763 150.942 85.0065 150.958L84.9886 150.208C84.6581 150.216 84.3271 150.223 83.9956 150.229L84.0084 150.979C83.3419 150.99 82.6735 150.997 82.0031 150.999L82.0006 150.249C81.8338 150.25 81.667 150.25 81.5 150.25C81.333 150.25 81.1662 150.25 80.9994 150.249L80.9969 150.999C80.3265 150.997 79.6581 150.99 78.9916 150.979L79.0044 150.229C78.6729 150.223 78.3419 150.216 78.0114 150.208L77.9935 150.958C77.3237 150.942 76.656 150.922 75.9904 150.897L76.0187 150.147C75.6862 150.135 75.3543 150.121 75.0229 150.106L74.9895 150.855C74.3226 150.826 73.658 150.791 72.9957 150.753L73.0395 150.004C72.7062 149.984 72.3734 149.964 72.0413 149.942L71.9922 150.69C71.3244 150.647 70.6591 150.598 69.9964 150.545L70.056 149.798C69.726 149.771 69.3967 149.744 69.068 149.715L69.0031 150.463C68.3338 150.404 67.6673 150.342 67.0035 150.274L67.0792 149.528C66.7491 149.495 66.4197 149.46 66.091 149.425L66.01 150.17C65.3441 150.098 64.681 150.021 64.0209 149.94L64.1127 149.195C63.7822 149.154 63.4525 149.113 63.1236 149.07L63.0263 149.813C62.3644 149.727 61.7056 149.635 61.0499 149.54L61.1582 148.798C60.8274 148.749 60.4975 148.7 60.1685 148.65L60.0547 149.391C59.3928 149.289 58.7343 149.183 58.0793 149.072L58.2043 148.333C57.8777 148.278 57.5521 148.221 57.2273 148.164L57.0967 148.902C56.4347 148.785 55.7764 148.664 55.1219 148.537L55.264 147.801C54.9386 147.738 54.6142 147.674 54.2907 147.609L54.1429 148.344C53.4849 148.212 52.8308 148.075 52.1808 147.934L52.3403 147.201C52.0154 147.13 51.6915 147.058 51.3687 146.985L51.2033 147.717C50.5506 147.569 49.9021 147.417 49.2579 147.26L49.4352 146.531C49.111 146.452 48.7879 146.372 48.4658 146.291L48.2824 147.018C47.6343 146.855 46.9907 146.687 46.3517 146.514L46.5473 145.79C46.2251 145.703 45.9041 145.615 45.5843 145.525L45.3825 146.248C44.7364 146.067 44.0952 145.882 43.459 145.692L43.6735 144.973C43.3565 144.879 43.0409 144.783 42.7265 144.686L42.5056 145.403C41.8622 145.205 41.224 145.002 40.5912 144.794L40.8251 144.081C40.5108 143.978 40.198 143.874 39.8865 143.769L39.6461 144.479C39.0087 144.263 38.377 144.043 37.7511 143.818L38.005 143.112C37.693 143 37.3824 142.886 37.0733 142.772L36.8126 143.475C36.1829 143.241 35.5593 143.003 34.9419 142.76L35.2165 142.062C34.9071 141.94 34.5993 141.818 34.2931 141.693L34.0113 142.388C33.39 142.137 32.7751 141.88 32.167 141.619L32.4632 140.929C32.1569 140.798 31.8524 140.665 31.5496 140.531L31.246 141.217C30.6338 140.946 30.0286 140.67 29.4306 140.389L29.7492 139.71C29.4467 139.568 29.1461 139.425 28.8474 139.281L28.5211 139.956C27.9186 139.665 27.3237 139.369 26.7366 139.068L27.0786 138.401C26.7809 138.248 26.4853 138.094 26.1918 137.939L25.8417 138.603C25.2487 138.29 24.6639 137.972 24.0877 137.649L24.4543 136.995C24.1636 136.832 23.8751 136.668 23.5889 136.502L23.2139 137.152C22.6322 136.816 22.0596 136.475 21.4962 136.129L21.8885 135.49C21.6053 135.316 21.3245 135.141 21.0461 134.965L20.645 135.599C20.0768 135.239 19.5185 134.874 18.9703 134.505L19.3897 133.883C19.1146 133.697 18.8422 133.511 18.5724 133.323L18.1437 133.938C17.5916 133.553 17.0503 133.164 16.5201 132.769L16.9679 132.167C16.7019 131.969 16.4387 131.77 16.1784 131.57L15.7208 132.164C15.1878 131.754 14.6667 131.338 14.1576 130.917L14.6353 130.339C14.3794 130.128 14.1267 129.915 13.8771 129.701L13.3891 130.271C12.8789 129.834 12.3815 129.391 11.8973 128.944L12.4063 128.393C12.1621 128.167 11.9214 127.94 11.6841 127.712L11.1643 128.253C10.6801 127.787 10.2101 127.317 9.75441 126.841L10.2961 126.322C10.0663 126.082 9.84027 125.841 9.61809 125.598L9.06517 126.105C8.61073 125.609 8.17181 125.108 7.74877 124.602L8.32424 124.121C8.1123 123.867 7.90447 123.613 7.70082 123.357L7.1139 123.824C6.69474 123.297 6.29263 122.765 5.90798 122.227L6.51776 121.791C6.32653 121.524 6.13977 121.255 5.95751 120.986L5.33633 121.406C4.95888 120.848 4.60012 120.285 4.26048 119.717L4.90419 119.332C4.73673 119.052 4.57408 118.771 4.41628 118.489L3.7616 118.855C3.43306 118.267 3.12486 117.674 2.83748 117.076L3.51342 116.751C3.37205 116.457 3.23588 116.162 3.10498 115.866L2.41897 116.169C2.14782 115.555 1.8985 114.937 1.67149 114.314L2.37618 114.057C2.26433 113.75 2.15807 113.442 2.05746 113.133L1.34429 113.365C1.13713 112.729 0.953184 112.088 0.792955 111.442L1.52085 111.262C1.44254 110.946 1.37007 110.63 1.30349 110.312L0.569472 110.466C0.432456 109.813 0.319685 109.156 0.23168 108.495L0.975125 108.396C0.932344 108.074 0.895589 107.752 0.864922 107.429L0.118274 107.5C0.0554587 106.837 0.017449 106.172 0.00476054 105.502L0.754626 105.488C0.751545 105.326 0.75 105.163 0.75 105C0.75 104.837 0.751545 104.674 0.754626 104.512L0.00476068 104.498C0.0174493 103.828 0.0554592 103.163 0.118275 102.5L0.864922 102.571C0.89559 102.248 0.932345 101.926 0.975126 101.604L0.231681 101.505C0.319686 100.844 0.432458 100.187 0.569475 99.5336L1.3035 99.6876C1.37007 99.3702 1.44254 99.0538 1.52085 98.7384L0.792957 98.5577C0.953186 97.9124 1.13714 97.2714 1.34429 96.6349L2.05747 96.8671C2.15807 96.558 2.26433 96.2499 2.37618 95.9429L1.6715 95.6862C1.8985 95.0631 2.14782 94.4446 2.41898 93.831L3.10498 94.1342C3.23589 93.838 3.37205 93.5428 3.51343 93.2487L2.83749 92.9238C3.12487 92.326 3.43306 91.7331 3.76161 91.1453L4.41629 91.5112C4.57408 91.2289 4.73673 90.9477 4.9042 90.6676L4.26048 90.2827C4.60012 89.7146 4.95889 89.1515 5.33634 88.5937L5.95752 89.0139C6.13977 88.7446 6.32654 88.4763 6.51776 88.2093L5.90798 87.7726C6.29264 87.2355 6.69474 86.7033 7.11391 86.1765L7.70082 86.6434C7.90448 86.3874 8.1123 86.1326 8.32425 85.879L7.74877 85.3981C8.17182 84.8919 8.61074 84.3908 9.06517 83.8949L9.61809 84.4016C9.84028 84.1592 10.0663 83.918 10.2961 83.678L9.75441 83.1593C10.2101 82.6835 10.6801 82.2127 11.1643 81.7471L11.6842 82.2878C11.9214 82.0597 12.1621 81.8328 12.4063 81.6071L11.8973 81.0563C12.3815 80.6088 12.8789 80.1664 13.3891 79.7292L13.8771 80.2987C14.1267 80.0849 14.3794 79.8723 14.6353 79.6609L14.1576 79.0827C14.6667 78.6621 15.1879 78.2465 15.7208 77.8361L16.1784 78.4303C16.4387 78.2298 16.7019 78.0306 16.9679 77.8326L16.5201 77.2309C17.0504 76.8363 17.5917 76.4466 18.1437 76.062L18.5724 76.6774C18.8422 76.4895 19.1146 76.3028 19.3897 76.1173L18.9703 75.4955C19.5185 75.1257 20.0768 74.761 20.645 74.4012L21.0462 75.0349C21.3245 74.8587 21.6053 74.6837 21.8885 74.5098L21.4962 73.8706C22.0596 73.5249 22.6322 73.184 23.2139 72.8481L23.5889 73.4976C23.8751 73.3323 24.1636 73.1683 24.4543 73.0054L24.0877 72.3511C24.664 72.0283 25.2487 71.7103 25.8417 71.3973L26.1918 72.0605C26.4853 71.9056 26.7809 71.7518 27.0786 71.5993L26.7366 70.9318C27.3237 70.631 27.9186 70.335 28.5211 70.0438L28.8475 70.7191C29.1461 70.5747 29.4467 70.4316 29.7492 70.2896L29.4306 69.6107C30.0286 69.3301 30.6338 69.0542 31.246 68.7832L31.5496 69.469C31.8524 69.335 32.1569 69.2022 32.4632 69.0705L32.167 68.3815C32.7751 68.1201 33.39 67.8634 34.0113 67.6115L34.2931 68.3066C34.5993 68.1825 34.9071 68.0595 35.2165 67.9378L34.9419 67.2399C35.5593 66.9969 36.1829 66.7586 36.8126 66.5252L37.0733 67.2284C37.3824 67.1138 37.693 67.0004 38.005 66.8881L37.7511 66.1824C38.377 65.9572 39.0087 65.7367 39.6461 65.521L39.8865 66.2314C40.198 66.126 40.5109 66.0217 40.8251 65.9186L40.5912 65.206C41.224 64.9983 41.8622 64.7953 42.5056 64.597L42.7265 65.3138C43.0409 65.2169 43.3565 65.1212 43.6735 65.0266L43.459 64.3079C44.0952 64.118 44.7364 63.9328 45.3825 63.7522L45.5843 64.4746C45.9041 64.3852 46.2252 64.297 46.5474 64.2099L46.3517 63.4859C46.9907 63.3132 47.6343 63.1451 48.2824 62.9816L48.4658 63.7089C48.7879 63.6276 49.111 63.5476 49.4352 63.4687L49.2579 62.7399C49.9021 62.5831 50.5506 62.4309 51.2033 62.2833L51.3687 63.0148C51.6915 62.9418 52.0154 62.87 52.3403 62.7992L52.1808 62.0664C52.8308 61.9249 53.4849 61.7879 54.1429 61.6556L54.2907 62.3909C54.6142 62.3259 54.9386 62.262 55.264 62.1992L55.1219 61.4628C55.7764 61.3365 56.4347 61.2147 57.0967 61.0976L57.2273 61.8362C57.5521 61.7787 57.8778 61.7224 58.2043 61.6672L58.0793 60.9277C58.7343 60.8169 59.3928 60.7107 60.0547 60.6091L60.1685 61.3504C60.4975 61.2999 60.8274 61.2505 61.1582 61.2023L61.0499 60.4601C61.7056 60.3645 62.3644 60.2734 63.0263 60.1868L63.1236 60.9305C63.4525 60.8874 63.7822 60.8455 64.1127 60.8048L64.0209 60.0604C64.681 59.979 65.3441 59.9021 66.01 59.8298L66.091 60.5754C66.4197 60.5397 66.7491 60.5051 67.0792 60.4717L67.0036 59.7255C67.6673 59.6582 68.3338 59.5955 69.0031 59.5374L69.068 60.2846C69.3967 60.256 69.726 60.2286 70.056 60.2023L69.9964 59.4547C70.6591 59.4018 71.3244 59.3535 71.9922 59.3097L72.0413 60.0581C72.3734 60.0363 72.7062 60.0156 73.0395 59.9961L72.9957 59.2474C73.658 59.2087 74.3226 59.1744 74.9895 59.1446L75.0229 59.8939C75.3543 59.8791 75.6862 59.8654 76.0187 59.8529L75.9904 59.1035C76.656 59.0784 77.3237 59.0578 77.9935 59.0418L78.0114 59.7916C78.3419 59.7837 78.6729 59.7769 79.0044 59.7713L78.9916 59.0214C79.6581 59.01 80.3265 59.0031 80.9969 59.0009L80.9994 59.7509C81.1662 59.7503 81.333 59.75 81.5 59.75C81.667 59.75 81.8338 59.7503 82.0006 59.7509L82.0031 59.0009C82.6735 59.0031 83.3419 59.01 84.0084 59.0214L83.9956 59.7713C84.3271 59.7769 84.6581 59.7837 84.9886 59.7916L85.0065 59.0418C85.6763 59.0578 86.344 59.0784 87.0096 59.1035L86.9813 59.8529C87.3138 59.8654 87.6457 59.8791 87.9771 59.8939L88.0105 59.1446C88.6774 59.1744 89.342 59.2087 90.0043 59.2474L89.9605 59.9961C90.2938 60.0156 90.6266 60.0363 90.9587 60.0581L91.0078 59.3097C91.6756 59.3535 92.3409 59.4018 93.0036 59.4547L92.944 60.2023C93.274 60.2286 93.6033 60.256 93.932 60.2846L93.9969 59.5374C94.6662 59.5955 95.3327 59.6582 95.9965 59.7255L95.9208 60.4717C96.2509 60.5051 96.5803 60.5397 96.909 60.5754L96.99 59.8298C97.6559 59.9021 98.319 59.979 98.9791 60.0604L98.8873 60.8048C99.2178 60.8455 99.5475 60.8874 99.8764 60.9305L99.9737 60.1868C100.636 60.2734 101.294 60.3645 101.95 60.4601L101.842 61.2023C102.173 61.2505 102.502 61.2999 102.832 61.3504L102.945 60.6091C103.607 60.7107 104.266 60.8169 104.921 60.9277L104.796 61.6672C105.122 61.7224 105.448 61.7787 105.773 61.8362L105.903 61.0976C106.565 61.2147 107.224 61.3365 107.878 61.4628L107.736 62.1992C108.061 62.262 108.386 62.3259 108.709 62.3909L108.857 61.6556C109.515 61.7879 110.169 61.9249 110.819 62.0664L110.66 62.7992C110.985 62.87 111.308 62.9418 111.631 63.0148L111.797 62.2833C112.449 62.4309 113.098 62.5831 113.742 62.7399L113.565 63.4687C113.889 63.5476 114.212 63.6276 114.534 63.7089L114.718 62.9816C115.366 63.1451 116.009 63.3132 116.648 63.4859L116.453 64.2099C116.775 64.297 117.096 64.3852 117.416 64.4746L117.618 63.7522C118.264 63.9328 118.905 64.118 119.541 64.3079L119.327 65.0266C119.643 65.1212 119.959 65.2169 120.274 65.3138L120.494 64.597C121.138 64.7953 121.776 64.9983 122.409 65.206L122.175 65.9186C122.489 66.0217 122.802 66.126 123.113 66.2314L123.354 65.521C123.991 65.7367 124.623 65.9572 125.249 66.1824L124.995 66.8881C125.307 67.0004 125.618 67.1138 125.927 67.2284L126.187 66.5252C126.817 66.7586 127.441 66.9969 128.058 67.2399L127.783 67.9378C128.093 68.0595 128.401 68.1825 128.707 68.3066L128.989 67.6115C129.61 67.8634 130.225 68.1201 130.833 68.3815L130.537 69.0705C130.843 69.2022 131.148 69.335 131.45 69.469L131.754 68.7832C132.366 69.0542 132.971 69.3301 133.569 69.6107L133.251 70.2897C133.553 70.4316 133.854 70.5747 134.153 70.7191L134.479 70.0438C135.081 70.335 135.676 70.631 136.263 70.9319L135.921 71.5993C136.219 71.7518 136.515 71.9056 136.808 72.0605L137.158 71.3973C137.751 71.7103 138.336 72.0283 138.912 72.3511L138.546 73.0054C138.836 73.1683 139.125 73.3323 139.411 73.4976L139.786 72.8481C140.368 73.184 140.94 73.5249 141.504 73.8706L141.111 74.5098C141.395 74.6837 141.675 74.8587 141.954 75.0349L142.355 74.4013C142.923 74.761 143.482 75.1257 144.03 75.4955L143.61 76.1173C143.885 76.3028 144.158 76.4895 144.428 76.6774L144.856 76.062C145.408 76.4466 145.95 76.8363 146.48 77.2309L146.032 77.8326C146.298 78.0306 146.561 78.2298 146.822 78.4303L147.279 77.8361C147.812 78.2465 148.333 78.6621 148.842 79.0827L148.365 79.6609C148.621 79.8723 148.873 80.0849 149.123 80.2987L149.611 79.7292C150.121 80.1664 150.619 80.6089 151.103 81.0563L150.594 81.6071C150.838 81.8328 151.079 82.0597 151.316 82.2878L151.836 81.7471C152.32 82.2127 152.79 82.6835 153.246 83.1593L152.704 83.678C152.934 83.918 153.16 84.1592 153.382 84.4017L153.935 83.8949C154.389 84.3908 154.828 84.8919 155.251 85.3981L154.676 85.879C154.888 86.1326 155.096 86.3874 155.299 86.6434L155.886 86.1765C156.305 86.7033 156.707 87.2355 157.092 87.7726L156.482 88.2093C156.673 88.4763 156.86 88.7446 157.042 89.014L157.664 88.5937C158.041 89.1516 158.4 89.7146 158.74 90.2827L158.096 90.6676C158.263 90.9477 158.426 91.2289 158.584 91.5112L159.238 91.1453C159.567 91.7331 159.875 92.326 160.163 92.9238L159.487 93.2488C159.628 93.5428 159.764 93.838 159.895 94.1342L160.581 93.8311C160.852 94.4447 161.102 95.0631 161.329 95.6862L160.624 95.9429C160.736 96.2499 160.842 96.558 160.943 96.8671L161.656 96.635C161.863 97.2714 162.047 97.9124 162.207 98.5577L161.479 98.7384C161.557 99.0538 161.63 99.3702 161.697 99.6876L162.431 99.5336C162.568 100.187 162.68 100.844 162.768 101.505L162.025 101.604C162.068 101.926 162.104 102.248 162.135 102.571L162.882 102.5Z" stroke="#CCF2DB" stroke-width="1.5" stroke-dasharray="1 2"/>
</svg>
