<svg width="18" height="38" viewBox="0 0 18 38" fill="none" xmlns="http://www.w3.org/2000/svg">
<path fill-rule="evenodd" clip-rule="evenodd" d="M14.8696 0H0V27C0 29.8593 1.61404 32.3415 3.9807 33.5854C5.22474 35.9516 7.70675 37.5652 10.5656 37.5652C14.6718 37.5652 18.0004 34.2366 18.0004 30.1304V4.63043V3.13043H16.5004H14.8696V0ZM14.8696 4.63043V3.13043H4.63086H3.13086V4.63043V30.1304C3.13086 31.3777 3.43797 32.5532 3.9807 33.5854C4.72404 33.9761 5.54163 34.2446 6.40678 34.3643C7.47766 35.4163 8.94587 36.0652 10.5656 36.0652C13.8433 36.0652 16.5004 33.4081 16.5004 30.1304V4.63043H14.8696ZM14.8696 4.63043V27C14.8696 31.1061 11.5409 34.4348 7.43478 34.4348C7.08598 34.4348 6.7428 34.4108 6.40678 34.3643C5.31069 33.2875 4.63086 31.7884 4.63086 30.1304V4.63043H14.8696Z" fill="white"/>
</svg>
