<svg width="280" height="148" viewBox="0 0 280 148" fill="none" xmlns="http://www.w3.org/2000/svg">
<line opacity="0.2" x1="251.538" y1="118.25" x2="279.315" y2="118.25" stroke="black" stroke-width="1.5"/>
<path d="M11.3283 21.7704C12.3637 10.3042 21.9752 1.52148 33.4882 1.52148H218.647C231.725 1.52148 241.983 12.7472 240.807 25.7725L232.489 117.884C231.454 129.35 221.842 138.133 210.329 138.133H25.1705C12.0921 138.133 1.83445 126.907 3.01064 113.882L11.3283 21.7704Z" fill="#E7E7E7" stroke="#C7C7C7" stroke-width="1.5"/>
<path d="M13.6525 24.8703C12.5575 11.8903 22.7976 0.75 35.8237 0.75H220.274C231.837 0.75 241.473 9.60732 242.445 21.1297L250.997 122.5C252.092 135.48 241.852 146.621 228.826 146.621H44.3752C32.8119 146.621 23.176 137.763 22.204 126.241L13.6525 24.8703Z" fill="white" stroke="#C7C7C7" stroke-width="1.5"/>
<mask id="path-4-inside-1_518_1725" fill="white">
<path d="M33.7005 80.8625C33.2085 76.1418 36.9111 72.0332 41.6574 72.0332H69.0501C73.1473 72.0332 76.5822 75.1288 77.007 79.2039L78.1634 90.299C78.6554 95.0197 74.9528 99.1283 70.2065 99.1283H42.8138C38.7166 99.1283 35.2816 96.0327 34.8569 91.9576L33.7005 80.8625Z"/>
</mask>
<path d="M34.8569 91.9576L33.8623 92.0612L34.8569 91.9576ZM78.1634 90.299L77.1687 90.4026L78.1634 90.299ZM33.7005 80.8625L34.6951 80.7589L33.7005 80.8625ZM41.6574 73.0332H69.0501V71.0332H41.6574V73.0332ZM76.0124 79.3076L77.1687 90.4026L79.158 90.1953L78.0016 79.1002L76.0124 79.3076ZM70.2065 98.1283H42.8138V100.128H70.2065V98.1283ZM35.8515 91.8539L34.6951 80.7589L32.7059 80.9662L33.8623 92.0612L35.8515 91.8539ZM42.8138 98.1283C39.2287 98.1283 36.2231 95.4197 35.8515 91.8539L33.8623 92.0612C34.3401 96.6458 38.2044 100.128 42.8138 100.128V98.1283ZM77.1687 90.4026C77.5993 94.5333 74.3595 98.1283 70.2065 98.1283V100.128C75.5461 100.128 79.7115 95.5061 79.158 90.1953L77.1687 90.4026ZM69.0501 73.0332C72.6351 73.0332 75.6407 75.7418 76.0124 79.3076L78.0016 79.1002C77.5238 74.5157 73.6594 71.0332 69.0501 71.0332V73.0332ZM41.6574 71.0332C36.3178 71.0332 32.1524 75.6553 32.7059 80.9662L34.6951 80.7589C34.2646 76.6282 37.5044 73.0332 41.6574 73.0332V71.0332Z" fill="#F2F2F2" mask="url(#path-4-inside-1_518_1725)"/>
<mask id="path-6-inside-2_518_1725" fill="white">
<path d="M31.0569 46.4978C30.5649 41.777 34.2675 37.6685 39.0138 37.6685H66.4065C70.5037 37.6685 73.9387 40.764 74.3634 44.8391L75.5198 55.9342C76.0118 60.655 72.3092 64.7635 67.5629 64.7635H40.1702C36.073 64.7635 32.6381 61.668 32.2133 57.5928L31.0569 46.4978Z"/>
</mask>
<path d="M32.2133 57.5928L31.2187 57.6965L32.2133 57.5928ZM75.5198 55.9342L74.5252 56.0379L75.5198 55.9342ZM31.0569 46.4978L32.0516 46.3941L31.0569 46.4978ZM39.0138 38.6685H66.4065V36.6685H39.0138V38.6685ZM73.3688 44.9428L74.5252 56.0379L76.5144 55.8305L75.358 44.7355L73.3688 44.9428ZM67.5629 63.7635H40.1702V65.7635H67.5629V63.7635ZM33.2079 57.4892L32.0516 46.3941L30.0623 46.6014L31.2187 57.6965L33.2079 57.4892ZM40.1702 63.7635C36.5852 63.7635 33.5796 61.0549 33.2079 57.4892L31.2187 57.6965C31.6965 62.281 35.5609 65.7635 40.1702 65.7635V63.7635ZM74.5252 56.0379C74.9557 60.1685 71.7159 63.7635 67.5629 63.7635V65.7635C72.9025 65.7635 77.0679 61.1414 76.5144 55.8305L74.5252 56.0379ZM66.4065 38.6685C69.9916 38.6685 72.9972 41.3771 73.3688 44.9428L75.358 44.7355C74.8802 40.151 71.0159 36.6685 66.4065 36.6685V38.6685ZM39.0138 36.6685C33.6742 36.6685 29.5088 41.2906 30.0623 46.6014L32.0516 46.3941C31.621 42.2634 34.8608 38.6685 39.0138 38.6685V36.6685Z" fill="#F2F2F2" mask="url(#path-6-inside-2_518_1725)"/>
<mask id="path-8-inside-3_518_1725" fill="white">
<path d="M38.3265 113.905C37.8345 109.184 41.537 105.076 46.2834 105.076H73.676C77.7733 105.076 81.2082 108.171 81.6329 112.246L82.7893 123.341C83.2814 128.062 79.5788 132.171 74.8324 132.171H47.4398C43.3425 132.171 39.9076 129.075 39.4829 125L38.3265 113.905Z"/>
</mask>
<path d="M39.4829 125L38.4883 125.104L39.4829 125ZM82.7893 123.341L81.7947 123.445L82.7893 123.341ZM38.3265 113.905L39.3211 113.801L38.3265 113.905ZM46.2834 106.076H73.676V104.076H46.2834V106.076ZM80.6383 112.35L81.7947 123.445L83.7839 123.238L82.6276 112.143L80.6383 112.35ZM74.8324 131.171H47.4398V133.171H74.8324V131.171ZM40.4775 124.896L39.3211 113.801L37.3319 114.009L38.4883 125.104L40.4775 124.896ZM47.4398 131.171C43.8547 131.171 40.8491 128.462 40.4775 124.896L38.4883 125.104C38.9661 129.688 42.8304 133.171 47.4398 133.171V131.171ZM81.7947 123.445C82.2252 127.576 78.9855 131.171 74.8324 131.171V133.171C80.1721 133.171 84.3375 128.549 83.7839 123.238L81.7947 123.445ZM73.676 106.076C77.2611 106.076 80.2667 108.784 80.6383 112.35L82.6276 112.143C82.1497 107.558 78.2854 104.076 73.676 104.076V106.076ZM46.2834 104.076C40.9438 104.076 36.7783 108.698 37.3319 114.009L39.3211 113.801C38.8906 109.671 42.1303 106.076 46.2834 106.076V104.076Z" fill="#F2F2F2" mask="url(#path-8-inside-3_518_1725)"/>
<mask id="path-10-inside-4_518_1725" fill="white">
<path d="M137.134 80.8625C136.642 76.1418 140.345 72.0332 145.091 72.0332H172.484C176.581 72.0332 180.016 75.1288 180.441 79.2039L181.597 90.299C182.089 95.0197 178.386 99.1283 173.64 99.1283H146.247C142.15 99.1283 138.715 96.0327 138.29 91.9576L137.134 80.8625Z"/>
</mask>
<path d="M138.29 91.9576L137.296 92.0612L138.29 91.9576ZM181.597 90.299L180.602 90.4026L181.597 90.299ZM137.134 80.8625L138.129 80.7589L137.134 80.8625ZM145.091 73.0332H172.484V71.0332H145.091V73.0332ZM179.446 79.3076L180.602 90.4026L182.592 90.1953L181.435 79.1002L179.446 79.3076ZM173.64 98.1283H146.247V100.128H173.64V98.1283ZM139.285 91.8539L138.129 80.7589L136.139 80.9662L137.296 92.0612L139.285 91.8539ZM146.247 98.1283C142.662 98.1283 139.657 95.4197 139.285 91.8539L137.296 92.0612C137.774 96.6458 141.638 100.128 146.247 100.128V98.1283ZM180.602 90.4026C181.033 94.5333 177.793 98.1283 173.64 98.1283V100.128C178.98 100.128 183.145 95.5061 182.592 90.1953L180.602 90.4026ZM172.484 73.0332C176.069 73.0332 179.074 75.7418 179.446 79.3076L181.435 79.1002C180.957 74.5157 177.093 71.0332 172.484 71.0332V73.0332ZM145.091 71.0332C139.751 71.0332 135.586 75.6553 136.139 80.9662L138.129 80.7589C137.698 76.6282 140.938 73.0332 145.091 73.0332V71.0332Z" fill="#F2F2F2" mask="url(#path-10-inside-4_518_1725)"/>
<mask id="path-12-inside-5_518_1725" fill="white">
<path d="M134.491 46.498C133.999 41.7773 137.701 37.6687 142.447 37.6687H169.84C173.937 37.6687 177.372 40.7643 177.797 44.8394L178.953 55.9345C179.445 60.6552 175.743 64.7638 170.996 64.7638H143.604C139.507 64.7638 136.072 61.6682 135.647 57.5931L134.491 46.498Z"/>
</mask>
<path d="M135.647 57.5931L134.652 57.6967L135.647 57.5931ZM178.953 55.9345L177.959 56.0381L178.953 55.9345ZM134.491 46.498L135.485 46.3944L134.491 46.498ZM142.447 38.6687H169.84V36.6687H142.447V38.6687ZM176.802 44.9431L177.959 56.0381L179.948 55.8308L178.792 44.7357L176.802 44.9431ZM170.996 63.7638H143.604V65.7638H170.996V63.7638ZM136.642 57.4894L135.485 46.3944L133.496 46.6017L134.652 57.6967L136.642 57.4894ZM143.604 63.7638C140.019 63.7638 137.013 61.0552 136.642 57.4894L134.652 57.6967C135.13 62.2813 138.994 65.7638 143.604 65.7638V63.7638ZM177.959 56.0381C178.389 60.1688 175.15 63.7638 170.996 63.7638V65.7638C176.336 65.7638 180.502 61.1416 179.948 55.8308L177.959 56.0381ZM169.84 38.6687C173.425 38.6687 176.431 41.3773 176.802 44.9431L178.792 44.7357C178.314 40.1512 174.449 36.6687 169.84 36.6687V38.6687ZM142.447 36.6687C137.108 36.6687 132.942 41.2908 133.496 46.6017L135.485 46.3944C135.055 42.2637 138.294 38.6687 142.447 38.6687V36.6687Z" fill="#F2F2F2" mask="url(#path-12-inside-5_518_1725)"/>
<g opacity="0.8">
<mask id="path-14-inside-6_518_1725" fill="white">
<path d="M141.76 113.905C141.268 109.184 144.971 105.076 149.717 105.076H177.11C181.207 105.076 184.642 108.171 185.067 112.246L186.223 123.341C186.715 128.062 183.012 132.171 178.266 132.171H150.873C146.776 132.171 143.341 129.075 142.916 125L141.76 113.905Z"/>
</mask>
<path d="M142.916 125L141.922 125.104L142.916 125ZM186.223 123.341L185.228 123.445L186.223 123.341ZM141.76 113.905L142.755 113.801L141.76 113.905ZM149.717 106.076H177.11V104.076H149.717V106.076ZM184.072 112.35L185.228 123.445L187.218 123.238L186.061 112.143L184.072 112.35ZM178.266 131.171H150.873V133.171H178.266V131.171ZM143.911 124.896L142.755 113.801L140.765 114.009L141.922 125.104L143.911 124.896ZM150.873 131.171C147.288 131.171 144.283 128.462 143.911 124.896L141.922 125.104C142.4 129.688 146.264 133.171 150.873 133.171V131.171ZM185.228 123.445C185.659 127.576 182.419 131.171 178.266 131.171V133.171C183.606 133.171 187.771 128.549 187.218 123.238L185.228 123.445ZM177.11 106.076C180.695 106.076 183.7 108.784 184.072 112.35L186.061 112.143C185.583 107.558 181.719 104.076 177.11 104.076V106.076ZM149.717 104.076C144.377 104.076 140.212 108.698 140.765 114.009L142.755 113.801C142.324 109.671 145.564 106.076 149.717 106.076V104.076Z" fill="#C7C7C7" mask="url(#path-14-inside-6_518_1725)"/>
</g>
<mask id="path-16-inside-7_518_1725" fill="white">
<path d="M84.6077 80.8625C84.1157 76.1418 87.8183 72.0332 92.5646 72.0332H119.957C124.055 72.0332 127.489 75.1288 127.914 79.2039L129.071 90.299C129.563 95.0197 125.86 99.1283 121.114 99.1283H93.721C89.6238 99.1283 86.1888 96.0327 85.7641 91.9576L84.6077 80.8625Z"/>
</mask>
<path d="M85.7641 91.9576L84.7695 92.0612L85.7641 91.9576ZM129.071 90.299L128.076 90.4026L129.071 90.299ZM84.6077 80.8625L85.6023 80.7589L84.6077 80.8625ZM92.5646 73.0332H119.957V71.0332H92.5646V73.0332ZM126.92 79.3076L128.076 90.4026L130.065 90.1953L128.909 79.1002L126.92 79.3076ZM121.114 98.1283H93.721V100.128H121.114V98.1283ZM86.7587 91.8539L85.6023 80.7589L83.6131 80.9662L84.7695 92.0612L86.7587 91.8539ZM93.721 98.1283C90.136 98.1283 87.1304 95.4197 86.7587 91.8539L84.7695 92.0612C85.2473 96.6458 89.1116 100.128 93.721 100.128V98.1283ZM128.076 90.4026C128.506 94.5333 125.267 98.1283 121.114 98.1283V100.128C126.453 100.128 130.619 95.5061 130.065 90.1953L128.076 90.4026ZM119.957 73.0332C123.542 73.0332 126.548 75.7418 126.92 79.3076L128.909 79.1002C128.431 74.5157 124.567 71.0332 119.957 71.0332V73.0332ZM92.5646 71.0332C87.225 71.0332 83.0596 75.6553 83.6131 80.9662L85.6023 80.7589C85.1718 76.6282 88.4116 73.0332 92.5646 73.0332V71.0332Z" fill="#F2F2F2" mask="url(#path-16-inside-7_518_1725)"/>
<mask id="path-18-inside-8_518_1725" fill="white">
<path d="M81.9642 46.4978C81.4721 41.777 85.1747 37.6685 89.9211 37.6685H117.314C121.411 37.6685 124.846 40.764 125.271 44.8391L126.427 55.9342C126.919 60.655 123.216 64.7635 118.47 64.7635H91.0775C86.9802 64.7635 83.5453 61.668 83.1206 57.5928L81.9642 46.4978Z"/>
</mask>
<path d="M83.1206 57.5928L82.1259 57.6965L83.1206 57.5928ZM126.427 55.9342L125.432 56.0379L126.427 55.9342ZM81.9642 46.4978L82.9588 46.3941L81.9642 46.4978ZM89.9211 38.6685H117.314V36.6685H89.9211V38.6685ZM124.276 44.9428L125.432 56.0379L127.422 55.8305L126.265 44.7355L124.276 44.9428ZM118.47 63.7635H91.0775V65.7635H118.47V63.7635ZM84.1152 57.4892L82.9588 46.3941L80.9696 46.6014L82.1259 57.6965L84.1152 57.4892ZM91.0775 63.7635C87.4924 63.7635 84.4868 61.0549 84.1152 57.4892L82.1259 57.6965C82.6038 62.281 86.4681 65.7635 91.0775 65.7635V63.7635ZM125.432 56.0379C125.863 60.1685 122.623 63.7635 118.47 63.7635V65.7635C123.81 65.7635 127.975 61.1414 127.422 55.8305L125.432 56.0379ZM117.314 38.6685C120.899 38.6685 123.904 41.3771 124.276 44.9428L126.265 44.7355C125.787 40.151 121.923 36.6685 117.314 36.6685V38.6685ZM89.9211 36.6685C84.5814 36.6685 80.416 41.2906 80.9696 46.6014L82.9588 46.3941C82.5283 42.2634 85.768 38.6685 89.9211 38.6685V36.6685Z" fill="#F2F2F2" mask="url(#path-18-inside-8_518_1725)"/>
<mask id="path-20-inside-9_518_1725" fill="white">
<path d="M89.2337 113.905C88.7417 109.184 92.4443 105.076 97.1906 105.076H124.583C128.68 105.076 132.115 108.171 132.54 112.246L133.697 123.341C134.189 128.062 130.486 132.171 125.74 132.171H98.347C94.2498 132.171 90.8148 129.075 90.3901 125L89.2337 113.905Z"/>
</mask>
<path d="M90.3901 125L89.3955 125.104L90.3901 125ZM133.697 123.341L132.702 123.445L133.697 123.341ZM89.2337 113.905L90.2283 113.801L89.2337 113.905ZM97.1906 106.076H124.583V104.076H97.1906V106.076ZM131.546 112.35L132.702 123.445L134.691 123.238L133.535 112.143L131.546 112.35ZM125.74 131.171H98.347V133.171H125.74V131.171ZM91.3847 124.896L90.2283 113.801L88.2391 114.009L89.3955 125.104L91.3847 124.896ZM98.347 131.171C94.7619 131.171 91.7563 128.462 91.3847 124.896L89.3955 125.104C89.8733 129.688 93.7376 133.171 98.347 133.171V131.171ZM132.702 123.445C133.132 127.576 129.893 131.171 125.74 131.171V133.171C131.079 133.171 135.245 128.549 134.691 123.238L132.702 123.445ZM124.583 106.076C128.168 106.076 131.174 108.784 131.546 112.35L133.535 112.143C133.057 107.558 129.193 104.076 124.583 104.076V106.076ZM97.1906 104.076C91.851 104.076 87.6856 108.698 88.2391 114.009L90.2283 113.801C89.7978 109.671 93.0376 106.076 97.1906 106.076V104.076Z" fill="#F2F2F2" mask="url(#path-20-inside-9_518_1725)"/>
<mask id="path-22-inside-10_518_1725" fill="white">
<path d="M188.042 80.8628C187.55 76.142 191.253 72.0334 195.999 72.0334H223.392C227.489 72.0334 230.924 75.129 231.349 79.2041L232.505 90.2992C232.997 95.02 229.295 99.1285 224.548 99.1285H197.156C193.058 99.1285 189.623 96.033 189.199 91.9578L188.042 80.8628Z"/>
</mask>
<path d="M189.199 91.9578L188.204 92.0615L189.199 91.9578ZM232.505 90.2992L231.511 90.4029L232.505 90.2992ZM188.042 80.8628L189.037 80.7591L188.042 80.8628ZM195.999 73.0334H223.392V71.0334H195.999V73.0334ZM230.354 79.3078L231.511 90.4029L233.5 90.1955L232.343 79.1005L230.354 79.3078ZM224.548 98.1285H197.156V100.129H224.548V98.1285ZM190.193 91.8542L189.037 80.7591L187.048 80.9664L188.204 92.0615L190.193 91.8542ZM197.156 98.1285C193.571 98.1285 190.565 95.4199 190.193 91.8542L188.204 92.0615C188.682 96.646 192.546 100.129 197.156 100.129V98.1285ZM231.511 90.4029C231.941 94.5335 228.701 98.1285 224.548 98.1285V100.129C229.888 100.129 234.053 95.5064 233.5 90.1955L231.511 90.4029ZM223.392 73.0334C226.977 73.0334 229.983 75.7421 230.354 79.3078L232.343 79.1005C231.866 74.5159 228.001 71.0334 223.392 71.0334V73.0334ZM195.999 71.0334C190.66 71.0334 186.494 75.6556 187.048 80.9664L189.037 80.7591C188.606 76.6284 191.846 73.0334 195.999 73.0334V71.0334Z" fill="#F2F2F2" mask="url(#path-22-inside-10_518_1725)"/>
<mask id="path-24-inside-11_518_1725" fill="white">
<path d="M185.399 46.4978C184.907 41.777 188.609 37.6685 193.356 37.6685H220.748C224.846 37.6685 228.28 40.764 228.705 44.8391L229.862 55.9342C230.354 60.655 226.651 64.7635 221.905 64.7635H194.512C190.415 64.7635 186.98 61.668 186.555 57.5928L185.399 46.4978Z"/>
</mask>
<path d="M186.555 57.5928L185.561 57.6965L186.555 57.5928ZM229.862 55.9342L228.867 56.0379L229.862 55.9342ZM185.399 46.4978L186.393 46.3941L185.399 46.4978ZM193.356 38.6685H220.748V36.6685H193.356V38.6685ZM227.711 44.9428L228.867 56.0379L230.856 55.8305L229.7 44.7355L227.711 44.9428ZM221.905 63.7635H194.512V65.7635H221.905V63.7635ZM187.55 57.4892L186.393 46.3941L184.404 46.6014L185.561 57.6965L187.55 57.4892ZM194.512 63.7635C190.927 63.7635 187.921 61.0549 187.55 57.4892L185.561 57.6965C186.038 62.281 189.903 65.7635 194.512 65.7635V63.7635ZM228.867 56.0379C229.298 60.1685 226.058 63.7635 221.905 63.7635V65.7635C227.244 65.7635 231.41 61.1414 230.856 55.8305L228.867 56.0379ZM220.748 38.6685C224.333 38.6685 227.339 41.3771 227.711 44.9428L229.7 44.7355C229.222 40.151 225.358 36.6685 220.748 36.6685V38.6685ZM193.356 36.6685C188.016 36.6685 183.851 41.2906 184.404 46.6014L186.393 46.3941C185.963 42.2634 189.203 38.6685 193.356 38.6685V36.6685Z" fill="#F2F2F2" mask="url(#path-24-inside-11_518_1725)"/>
<mask id="path-26-inside-12_518_1725" fill="white">
<path d="M192.667 113.905C192.175 109.184 195.878 105.076 200.624 105.076H228.017C232.114 105.076 235.549 108.171 235.974 112.246L237.13 123.341C237.622 128.062 233.92 132.171 229.173 132.171H201.781C197.683 132.171 194.248 129.075 193.824 125L192.667 113.905Z"/>
</mask>
<path d="M193.824 125L192.829 125.104L193.824 125ZM237.13 123.341L236.136 123.445L237.13 123.341ZM192.667 113.905L193.662 113.801L192.667 113.905ZM200.624 106.076H228.017V104.076H200.624V106.076ZM234.979 112.35L236.136 123.445L238.125 123.238L236.968 112.143L234.979 112.35ZM229.173 131.171H201.781V133.171H229.173V131.171ZM194.818 124.896L193.662 113.801L191.673 114.009L192.829 125.104L194.818 124.896ZM201.781 131.171C198.196 131.171 195.19 128.462 194.818 124.896L192.829 125.104C193.307 129.688 197.171 133.171 201.781 133.171V131.171ZM236.136 123.445C236.566 127.576 233.326 131.171 229.173 131.171V133.171C234.513 133.171 238.678 128.549 238.125 123.238L236.136 123.445ZM228.017 106.076C231.602 106.076 234.608 108.784 234.979 112.35L236.968 112.143C236.491 107.558 232.626 104.076 228.017 104.076V106.076ZM200.624 104.076C195.285 104.076 191.119 108.698 191.673 114.009L193.662 113.801C193.231 109.671 196.471 106.076 200.624 106.076V104.076Z" fill="#F2F2F2" mask="url(#path-26-inside-12_518_1725)"/>
</svg>
