<svg width="276" height="327" viewBox="0 0 276 327" fill="none" xmlns="http://www.w3.org/2000/svg">
<path d="M29.736 110.918L33.6113 188.497L21.814 189.086L17.9387 111.507C15.9089 70.8717 52.4023 10.3376 136.851 6.11912C213.465 2.29207 252.424 55.2518 254.344 93.6913L258.229 177.277L247.498 177.813L243.622 100.234C241.782 63.3941 202.741 14.7412 137.445 18.0029C61.702 21.7864 27.7874 71.9092 29.736 110.918Z" fill="#F2F2F2" stroke="#C7C7C7"/>
<path d="M25.7419 111.117L29.6171 188.696L17.8198 189.285L13.9446 111.706C11.9147 71.0709 48.4081 10.5368 132.857 6.31834C209.471 2.49129 248.43 55.451 250.35 93.8905L254.234 177.476L243.503 178.012L239.628 100.433C237.788 63.5933 198.747 14.9404 133.451 18.2021C57.7079 21.9857 23.7933 72.1084 25.7419 111.117Z" fill="white" stroke="#C7C7C7"/>
<rect x="227.065" y="141.462" width="38.8042" height="135.471" rx="19.4021" transform="rotate(-2.85969 227.065 141.462)" fill="white" stroke="#C7C7C7"/>
<rect x="7.4678" y="152.432" width="38.8042" height="135.471" rx="19.4021" transform="rotate(-2.85969 7.4678 152.432)" fill="white" stroke="#C7C7C7"/>
<rect x="18.7334" y="112.015" width="82.3992" height="213.184" rx="30" transform="rotate(-2.85969 18.7334 112.015)" fill="white" stroke="#C7C7C7"/>
<rect x="26.0752" y="111.149" width="75.0554" height="214.128" rx="30" transform="rotate(-2.85969 26.0752 111.149)" fill="white" stroke="#C7C7C7"/>
<path d="M60.3287 138.405L79.586 137.443C87.5841 137.043 94.3918 143.203 94.7913 151.201L101.049 276.471C101.448 284.469 95.2885 291.277 87.2903 291.676L68.033 292.638C60.0348 293.038 53.2272 286.878 52.8277 278.879L46.5701 153.61C46.1706 145.612 52.3305 138.804 60.3287 138.405Z" fill="#F2F2F2" stroke="#C7C7C7"/>
<rect x="168.287" y="104.545" width="82.3992" height="213.184" rx="30" transform="rotate(-2.85969 168.287 104.545)" fill="white" stroke="#C7C7C7"/>
<rect x="168.23" y="104.048" width="75.0554" height="214.128" rx="30" transform="rotate(-2.85969 168.23 104.048)" fill="white" stroke="#C7C7C7"/>
<rect x="178.085" y="132.523" width="48.2813" height="154.426" rx="14.5" transform="rotate(-2.85969 178.085 132.523)" fill="#F2F2F2" stroke="#C7C7C7"/>
</svg>
