<svg width="300" height="21" viewBox="0 0 300 21" fill="none" xmlns="http://www.w3.org/2000/svg">
<path d="M126.721 17.2568C126.656 17.3672 126.592 17.4776 126.516 17.6101C125.521 19.2331 125.013 20.0501 120.19 20.0612C118.265 20.0501 117.616 19.4981 117.616 17.8751V11.0407C117.638 10.7757 117.746 10.6543 118.319 10.6543C120.114 10.6543 121.552 10.8309 122.709 10.9745C123.466 11.0738 124.126 11.1511 124.667 11.1511C125.499 11.1511 126.159 10.4776 126.159 9.90349V9.81517H126.072C126.072 9.81517 121.455 9.98078 120.19 9.98078H118.394C117.843 9.98078 117.659 9.87037 117.627 9.5281V0.938228H122.677C124.407 0.938228 125.229 1.77734 125.813 2.60541C126.008 2.85936 126.148 3.12434 126.278 3.34516C126.581 3.88617 126.819 4.30572 127.478 4.30572H127.565V0.297852H112.198V0.386179C112.198 0.938228 112.631 1.12592 113.096 1.32466C113.734 1.58965 114.458 1.89879 114.458 3.22371V17.7095C114.458 19.0344 113.734 19.3435 113.096 19.6085C112.631 19.8072 112.198 19.9839 112.198 20.547V20.6353H128.03V16.2631H127.943C127.316 16.2631 127.078 16.6826 126.732 17.2678" fill="#183428"/>
<path d="M276.787 17.268C276.722 17.3784 276.657 17.4888 276.582 17.6213C275.576 19.2443 275.078 20.0614 270.255 20.0724C268.341 20.0724 267.692 19.5093 267.692 17.8863V11.0519C267.714 10.787 267.822 10.6655 268.385 10.6655C270.18 10.6655 271.618 10.8422 272.764 10.9857C273.521 11.074 274.181 11.1624 274.722 11.1624C275.554 11.1624 276.214 10.4889 276.214 9.91472V9.8264H276.127C276.127 9.8264 271.51 9.99201 270.245 9.99201H268.449C267.898 9.99201 267.714 9.8816 267.682 9.53933V0.938417H272.721C274.451 0.938417 275.273 1.77753 275.857 2.6056C276.052 2.85955 276.192 3.11349 276.322 3.34535C276.625 3.88636 276.863 4.30591 277.522 4.30591H277.609V0.309082H262.242V0.39741C262.242 0.949458 262.675 1.13715 263.14 1.32485C263.778 1.58983 264.502 1.89898 264.502 3.23494V17.7207C264.502 19.0456 263.778 19.3548 263.14 19.6197C262.675 19.8185 262.242 19.9951 262.242 20.5582V20.6465H278.074V16.2743H277.987C277.36 16.2743 277.122 16.6939 276.776 17.2791" fill="#183428"/>
<path d="M247.568 0.19873C246.281 0.19873 245.481 0.220812 244.713 0.253935C243.956 0.276017 243.243 0.298099 242.107 0.298099H239.804V0.386427C239.804 0.949516 240.236 1.12617 240.701 1.32491C241.339 1.58989 242.064 1.89904 242.064 3.22396V17.7097C242.064 19.0346 241.329 19.3438 240.691 19.6088C240.226 19.8075 239.782 19.9841 239.782 20.5472V20.6356H242.118C243.059 20.6356 243.805 20.6687 244.53 20.7018C245.265 20.7349 246.022 20.7681 246.995 20.7681C255.052 20.7681 259.658 17.0031 259.658 10.4337C259.658 3.86433 255.246 0.19873 247.568 0.19873ZM247.406 20.1277C245.881 20.1277 245.2 19.5425 245.2 18.2397V0.927434C245.406 0.88327 246.108 0.772861 247.406 0.772861C253.667 0.772861 256.22 3.57727 256.22 10.4337C256.22 17.2901 253.419 20.1277 247.406 20.1277Z" fill="#183428"/>
<path d="M176.001 0.386369C176.001 0.938417 176.433 1.12611 176.898 1.32485C177.536 1.58983 178.261 1.89898 178.261 3.2239V17.7097C178.261 19.0346 177.536 19.3437 176.898 19.6087C176.433 19.8074 176.001 19.9841 176.001 20.5472V20.6355H183.69V20.5472C183.69 19.9841 183.257 19.8074 182.792 19.6087C182.154 19.3437 181.429 19.0346 181.429 17.7097V11.1403C181.451 10.7428 181.592 10.6545 182.132 10.6545C183.927 10.6545 185.355 10.8311 186.501 10.9747C187.258 11.074 187.907 11.1513 188.448 11.1513C189.302 11.1513 189.972 10.4778 189.972 9.89264V9.80432H189.886C189.886 9.80432 185.247 9.96993 182.176 9.96993C181.656 9.96993 181.462 9.84848 181.44 9.49517V0.938417H186.49C188.231 0.938417 189.075 1.83274 189.626 2.6056C189.821 2.85955 189.972 3.12453 190.091 3.34535C190.394 3.87531 190.632 4.30591 191.292 4.30591H191.378V0.309082H176.001V0.39741V0.386369Z" fill="#183428"/>
<path d="M280.421 0.297852V4.31676H280.507C281.167 4.31676 281.405 3.89721 281.708 3.3562C281.838 3.13538 281.978 2.8704 282.173 2.61645C282.724 1.84359 283.568 0.949269 285.309 0.949269H288.402V17.7205C288.402 19.0454 287.666 19.3546 287.028 19.6195C286.563 19.8183 286.12 20.006 286.12 20.558V20.6464H293.841V20.558C293.841 19.9949 293.398 19.8183 292.933 19.6195C292.284 19.3546 291.559 19.0454 291.559 17.7205V0.938228H294.652C296.382 0.938228 297.204 1.77734 297.788 2.60541C297.983 2.85936 298.123 3.1133 298.253 3.34516C298.556 3.87513 298.794 4.30572 299.454 4.30572H299.54V0.297852H280.443H280.421Z" fill="#183428"/>
<path d="M9.99486 0.57413C12.3415 0.57413 14.2664 1.86592 14.9152 3.86434C15.0666 4.32806 15.3478 4.41639 15.5533 4.41639C15.7263 4.41639 16.0291 4.35014 16.1589 3.88642L16.9266 1.347L16.8618 1.31388C16.5157 1.13722 13.0444 0 10.0273 0C7.31299 0 4.85821 0.883277 3.11715 2.47318C1.10574 4.31702 0.0351562 7.09934 0.0351562 10.5C0.0351562 16.9589 3.86332 20.9668 10.0273 20.9668C12.5253 20.9668 16.7428 20.4037 16.7428 18.3059C16.7428 17.8643 16.5482 17.4999 16.3427 17.1245L16.267 16.9921L16.1913 17.1245C15.4235 18.6261 13.4553 20.3816 10.4491 20.3816C6.10182 20.3816 3.50646 16.5835 3.50646 10.2239C3.50646 3.86434 5.92879 0.57413 9.99486 0.57413Z" fill="#183428"/>
<path d="M81.5299 17.2568C81.465 17.3672 81.4001 17.4886 81.3136 17.6101C80.2755 19.2994 79.7996 20.0612 74.8468 20.0612C70.4563 20.0612 70.1211 19.4871 70.1211 18.6038V3.22371C70.1211 1.89879 70.8564 1.58965 71.4837 1.32466C71.9487 1.12592 72.3812 0.949269 72.3812 0.386179V0.297852H64.6816V0.386179C64.6816 0.938228 65.1142 1.12592 65.5792 1.32466C66.2172 1.58965 66.9418 1.89879 66.9418 3.22371V17.7095C66.9418 19.0344 66.2172 19.3435 65.5792 19.6085C65.1142 19.8072 64.6816 19.9949 64.6816 20.547V20.6353H82.7951V16.2521H82.7086C82.0922 16.2521 81.8435 16.6716 81.5082 17.2457" fill="#183428"/>
<path d="M39.2143 19.697C38.9332 19.5314 38.6087 19.3327 38.3708 18.88C38.3276 18.7917 38.2843 18.7144 38.2411 18.6371C38.0248 18.2286 37.7761 17.7649 37.3651 16.6939L31.3525 0.960499C31.1795 0.463656 30.9849 0.309082 30.5523 0.309082H28.303L21.5442 17.0472C20.7548 18.9904 19.6301 19.3768 18.8191 19.6529C18.2784 19.8406 17.8458 19.9841 17.8458 20.5472V20.6355H23.6097V20.5472C23.6097 19.9951 23.2312 19.8185 22.8527 19.6418C22.431 19.4431 22.0092 19.2443 22.0092 18.5046C22.0092 18.2175 22.0741 17.8532 22.3985 16.9699L23.7395 13.5582C23.9557 12.962 24.0855 12.8185 24.7776 12.8185C24.7884 12.8185 25.8806 12.7191 28.4652 12.7191C30.8767 12.7191 32.196 12.7964 32.4664 12.8185C34.3913 17.798 34.5643 18.2948 34.5643 18.5819C34.5643 19.2333 34.1101 19.41 33.6235 19.5977C33.1693 19.7743 32.7043 19.951 32.7043 20.5472V20.6355H39.8415V20.5472C39.8415 20.0614 39.5496 19.8847 39.2359 19.697M32.2501 12.0898C31.8932 12.1119 30.6821 12.1781 28.476 12.1781C26.0212 12.1781 24.7992 12.0788 24.7884 12.0788C24.5397 12.0456 24.4964 11.8911 24.4964 11.8027C24.4964 11.615 24.5613 11.4605 24.6262 11.339L28.4219 1.88794L32.2285 12.0898H32.2501Z" fill="#183428"/>
<path d="M60.8315 19.4652C59.8799 19.145 59.8367 18.9132 59.2203 16.0867C58.4849 12.6309 56.4411 11.5047 53.1752 10.8974C57.3494 10.0583 59.5447 8.2476 59.5447 5.63089C59.5447 2.23027 56.2248 0.19873 50.6664 0.19873C50.5042 0.19873 50.2663 0.19873 49.931 0.220812C49.0659 0.253935 47.6168 0.298099 45.1404 0.298099H42.1125V0.386427C42.1125 0.949516 42.5451 1.12617 43.0101 1.32491C43.6481 1.58989 44.3618 1.89904 44.3618 3.22396V17.7097C44.3618 19.0346 43.6373 19.3438 43.0101 19.6088C42.5451 19.8075 42.1125 19.9841 42.1125 20.5472V20.6356H49.8013V20.5472C49.8013 19.9841 49.3687 19.8075 48.9037 19.6088C48.2657 19.3438 47.5519 19.0346 47.5519 17.7097V11.9022C47.5519 11.5709 47.6493 11.3501 48.1575 11.2839C48.6874 11.2176 49.3903 11.1845 50.2446 11.1845H51.3909C53.9538 11.1845 54.8406 12.0015 55.5219 14.9826C55.5868 15.2807 56.1815 17.8864 56.1815 17.8864C56.679 19.94 57.317 20.6245 60.0854 20.6245H61.967V20.5362C61.967 19.8737 61.5345 19.6971 60.8315 19.4542M47.5519 9.61668V0.861189C47.5519 0.861189 49.0659 0.695574 50.5799 0.695574C54.2134 0.695574 56.214 2.42901 56.214 5.58672C56.214 8.74444 54.819 10.5772 51.4558 10.5772C50.5799 10.5772 49.3579 10.5772 48.2873 10.4447C47.6817 10.3675 47.5519 10.2791 47.5519 9.61668Z" fill="#183428"/>
<path d="M150.847 19.4652C149.895 19.145 149.852 18.9132 149.236 16.0867C148.5 12.6309 146.457 11.5047 143.191 10.8974C147.365 10.0583 149.56 8.2476 149.56 5.63089C149.56 2.23027 146.24 0.19873 140.682 0.19873C140.52 0.19873 140.282 0.19873 139.946 0.220812C139.081 0.253935 137.632 0.298099 135.156 0.298099H132.128V0.386427C132.128 0.949516 132.56 1.12617 133.025 1.32491C133.664 1.58989 134.388 1.89904 134.388 3.22396V17.7097C134.388 19.0346 133.664 19.3438 133.036 19.6088C132.571 19.8075 132.139 19.9841 132.139 20.5472V20.6356H139.828V20.5472C139.828 19.9841 139.395 19.8075 138.93 19.6088C138.292 19.3438 137.578 19.0346 137.578 17.7097V11.9022C137.578 11.5709 137.676 11.3501 138.195 11.2839C138.724 11.2176 139.427 11.1845 140.271 11.1845H141.417C143.98 11.1845 144.867 12.0015 145.548 14.9826C145.613 15.2807 146.208 17.8864 146.208 17.8864C146.716 19.94 147.343 20.6245 150.112 20.6245H151.993V20.5362C151.993 19.8737 151.561 19.6971 150.858 19.4542M137.578 9.61668V0.861189C137.578 0.861189 139.092 0.695574 140.606 0.695574C144.24 0.695574 146.24 2.42901 146.24 5.58672C146.24 8.74444 144.845 10.5772 141.482 10.5772C140.606 10.5772 139.373 10.5772 138.314 10.4447C137.708 10.3675 137.578 10.2791 137.578 9.61668Z" fill="#183428"/>
<path d="M203.036 0C197.153 0 193.206 4.20661 193.206 10.4668C193.206 16.7271 197.153 20.9668 203.036 20.9668C205.772 20.9668 208.237 20.0062 209.978 18.2728C211.871 16.3958 212.866 13.6908 212.866 10.4668C212.866 3.235 207.935 0 203.036 0ZM209.427 10.4668C209.427 17.235 207.394 20.3927 203.036 20.3927C198.678 20.3927 196.645 17.1466 196.645 10.4668C196.645 3.78705 198.732 0.57413 203.036 0.57413C207.34 0.57413 209.427 3.72081 209.427 10.4668Z" fill="#183428"/>
<path d="M86.742 0.673499L86.0607 2.64983C85.9742 2.85961 85.7579 2.9369 85.6498 2.9369C85.1631 2.9369 85.1956 2.24132 84.6873 1.52365C84.1791 0.805991 83.5735 0.496844 82.6543 0.496844C80.9349 0.496844 79.7345 1.57886 79.7345 3.11355C79.7345 4.27286 80.2752 4.99052 83.368 5.94004C85.9417 6.73499 87.1854 8.18136 87.1854 10.3564C87.1854 12.5315 85.6714 14.8832 82.2974 14.8832C81.4648 14.8832 77.3338 14.7618 77.3338 12.2665C77.3338 11.3722 78.2422 10.5662 78.2854 10.5331L78.3936 10.4448L78.426 10.5772C78.9775 13.0173 80.3293 14.2981 82.3299 14.2981C84.125 14.2981 85.1523 13.2823 85.1523 11.5157C85.1523 9.84855 84.2872 9.28546 81.8432 8.55675C80.286 8.08199 77.7015 7.29808 77.7015 4.27286C77.7015 1.68927 79.7669 0 82.9787 0C84.6116 0 86.1905 0.441639 86.7528 0.673499" fill="#183428"/>
<path d="M231.207 0.386179C231.207 0.938228 231.639 1.12592 232.104 1.32466C232.742 1.58965 233.467 1.89879 233.467 3.22371V16.8483L221.874 0.938228C221.442 0.353056 221.161 0.308893 220.858 0.308893H215.667V0.39722C215.667 0.949269 216.11 1.13697 216.565 1.3357C217.203 1.60069 217.927 1.90983 217.927 3.23475V17.7205C217.927 19.0454 217.203 19.3546 216.565 19.6195C216.1 19.8183 215.667 19.9949 215.667 20.558V20.6464H221.139V20.558C221.139 19.9949 220.706 19.8183 220.241 19.6195C219.603 19.3546 218.879 19.0454 218.879 17.7205V2.02024L231.153 19.0675C231.996 20.271 232.472 20.6464 233.77 20.6464H234.44V3.22371C234.44 1.89879 235.165 1.58965 235.803 1.32466C236.268 1.12592 236.7 0.949269 236.7 0.386179V0.297852H231.207V0.386179Z" fill="#183428"/>
<path d="M101.763 10.191C106.056 9.24147 107.97 7.69574 107.97 5.20048C107.97 1.97652 104.639 0.209961 98.6049 0.209961C97.956 0.209961 97.318 0.232043 96.5718 0.243084C95.5553 0.265166 94.2901 0.30933 92.5598 0.30933H90.1591V0.397657C90.1591 0.949706 90.5917 1.1374 91.0567 1.33614C91.6947 1.60112 92.4193 1.91027 92.4193 3.24623V17.732C92.4193 19.0569 91.6947 19.366 91.0567 19.631C90.5917 19.8298 90.1591 20.0064 90.1591 20.5695V20.6578H92.4625C94.1711 20.6578 95.339 20.7241 96.3772 20.7793C97.2207 20.8235 97.956 20.8676 98.832 20.8676C107.04 20.8676 108.759 17.9528 108.759 15.5017C108.759 12.7194 106.467 10.9859 101.763 10.2131M95.5878 8.92129V0.894501C95.9122 0.861378 97.2531 0.706805 98.5832 0.706805C102.628 0.706805 104.682 2.23046 104.682 5.2336C104.682 8.06009 102.844 9.89289 99.9891 9.89289H98.1939C95.804 9.89289 95.5986 9.64999 95.5986 8.91024M98.886 20.3045C96.4637 20.3045 95.5986 19.7414 95.5986 18.1515V11.4055C95.5986 10.6878 95.7067 10.456 97.8695 10.456H99.6971C102.325 10.456 105.396 11.7367 105.396 15.3471C105.396 18.538 103.082 20.3045 98.8752 20.3045" fill="#183428"/>
<path d="M163.748 21C166.041 21 167.349 20.2934 168.398 19.7192C169.047 19.3659 169.328 19.2555 169.631 19.2555C169.934 19.2555 170.215 19.4543 170.561 19.929C171.048 20.5363 171.232 20.6246 171.686 20.6246H171.772V10.5332C171.772 10.0474 171.545 9.8155 171.069 9.8155H168.571V17.4448C168.571 19.7745 165.37 20.3927 163.683 20.3927C159.401 20.3927 157.227 17.0584 157.227 10.5C157.227 3.94171 159.423 0.607334 163.748 0.607334C166.755 0.607334 168.193 2.2414 169.209 3.84234C169.372 4.10732 169.523 4.3171 169.837 4.3171C170.085 4.3171 170.302 4.11836 170.41 3.78713L171.177 1.23667L171.102 1.20355C169.642 0.640456 166.484 0.0332031 164.105 0.0332031C157.703 0.0332031 153.724 4.04108 153.724 10.5C153.724 18.5158 159.369 21 163.748 21Z" fill="#183428"/>
</svg>
