<?xml version="1.0" encoding="UTF-8"?><svg id="Logo" xmlns="http://www.w3.org/2000/svg" viewBox="0 0 865.45 59.44"><defs><style>.cls-1{fill:#fff;}</style></defs><path class="cls-1" d="M366.09,48.86c-.18,.31-.38,.64-.6,.98-2.89,4.6-4.34,6.9-18.29,6.95-5.55-.04-7.42-1.59-7.42-6.18V31.26c.07-.74,.39-1.1,2.02-1.1,5.2,0,9.34,.5,12.67,.91,2.2,.27,4.09,.5,5.66,.5,2.42,0,4.3-1.9,4.3-3.54v-.25h-.25c-.13,.01-13.36,.48-16.99,.48h-5.2c-1.58,0-2.14-.32-2.22-1.27V2.66h14.59c5,0,7.38,2.39,9.06,4.73,.56,.73,.98,1.46,1.34,2.09,.87,1.52,1.56,2.72,3.48,2.72h.24V.86h-44.42v.24c0,1.57,1.26,2.09,2.59,2.64,1.84,.76,3.93,1.62,3.93,5.39V50.13c0,3.76-2.09,4.62-3.93,5.38-1.33,.55-2.6,1.07-2.6,2.65v.24h45.75v-12.39h-.24c-1.8,0-2.51,1.19-3.5,2.84Z"/><path class="cls-1" d="M799.75,48.86c-.18,.31-.38,.63-.6,.99-2.89,4.59-4.35,6.89-18.28,6.93-5.54-.03-7.41-1.59-7.41-6.18V31.25c.06-.74,.38-1.09,2.01-1.09,5.2,0,9.34,.5,12.67,.91,2.2,.27,4.09,.5,5.66,.5,2.42,0,4.3-1.9,4.3-3.54v-.25h-.25c-.13,.01-13.36,.48-16.99,.48h-5.2c-1.58,0-2.14-.32-2.21-1.27V2.66h14.58c5,0,7.39,2.39,9.07,4.73,.56,.73,.98,1.45,1.34,2.09,.87,1.52,1.56,2.72,3.47,2.72h.24V.86h-44.42v.24c0,1.57,1.26,2.09,2.59,2.64,1.84,.76,3.93,1.62,3.93,5.39V50.13c0,3.76-2.08,4.62-3.92,5.38-1.33,.55-2.59,1.07-2.59,2.65v.24h45.74v-12.39h-.24c-1.8,0-2.52,1.19-3.5,2.85Z"/><path class="cls-1" d="M715.31,.57c-3.72,0-6.02,.07-8.25,.14-2.19,.07-4.25,.14-7.53,.14h-6.67v.24c0,1.58,1.26,2.1,2.6,2.65,1.84,.76,3.93,1.62,3.93,5.38V50.13c0,3.75-2.11,4.61-3.98,5.37-1.36,.55-2.63,1.08-2.63,2.66v.24h6.76c2.72,0,4.88,.09,6.96,.18,2.12,.09,4.31,.18,7.12,.18,23.27,0,36.61-10.66,36.61-29.24S737.5,.57,715.31,.57Zm-.48,56.4c-4.4,0-6.37-1.64-6.37-5.33V2.62c.59-.11,2.62-.43,6.37-.43,18.08,0,25.46,7.92,25.46,27.35s-8.09,27.44-25.46,27.44Z"/><path class="cls-1" d="M508.49,1.1c0,1.58,1.26,2.1,2.6,2.65,1.84,.76,3.93,1.62,3.93,5.38V50.13c0,3.76-2.09,4.62-3.93,5.38-1.34,.55-2.6,1.08-2.6,2.66v.24h22.22v-.24c0-1.58-1.26-2.1-2.59-2.66-1.84-.76-3.92-1.63-3.92-5.38V31.54c.08-1.12,.46-1.38,2.03-1.38,5.2,0,9.31,.51,12.61,.92,2.18,.27,4.06,.51,5.62,.51,2.48,0,4.4-1.91,4.4-3.56v-.25h-.25c-.13,.01-13.42,.48-22.28,.48-1.49,0-2.05-.36-2.13-1.36V2.66h14.59c5.03,0,7.48,2.52,9.06,4.73,.57,.73,.99,1.46,1.36,2.11,.87,1.51,1.56,2.71,3.47,2.71h.24V.86h-44.43v.24Z"/><path class="cls-1" d="M810.26,.85V12.2h.24c1.92,0,2.61-1.2,3.47-2.72,.37-.64,.78-1.37,1.35-2.1,1.58-2.2,4.04-4.72,9.06-4.72h8.93V50.13c0,3.75-2.11,4.61-3.98,5.37-1.36,.55-2.64,1.08-2.64,2.66v.24h22.31v-.24c0-1.59-1.28-2.11-2.64-2.66-1.87-.76-3.98-1.62-3.98-5.37V2.66h8.93c5,0,7.38,2.38,9.06,4.73,.56,.73,.98,1.46,1.35,2.09,.87,1.52,1.56,2.72,3.47,2.72h.24V.85h-55.18Z"/><path class="cls-1" d="M28.77,1.62c6.77,0,12.35,3.65,14.22,9.3,.45,1.3,1.25,1.57,1.84,1.57,.5,0,1.39-.2,1.74-1.49l2.23-7.18-.18-.09C47.62,3.21,37.58,0,28.87,0,21.03,0,13.94,2.49,8.9,7.01,3.08,12.23,0,20.08,0,29.73c0,18.27,11.06,29.62,28.87,29.62,7.21,0,19.42-1.58,19.42-7.52,0-1.24-.55-2.29-1.17-3.34l-.22-.38-.2,.39c-2.22,4.25-7.9,9.22-16.6,9.22-12.57,0-20.07-10.75-20.07-28.76S17.03,1.62,28.77,1.62Z"/><path class="cls-1" d="M235.5,48.84c-.19,.31-.39,.65-.61,1-3,4.77-4.36,6.95-18.67,6.95-12.7,0-13.65-1.63-13.65-4.11l.03-43.56c0-3.76,2.08-4.62,3.92-5.39,1.33-.55,2.59-1.07,2.59-2.64v-.24h-22.24v.24c0,1.57,1.26,2.09,2.59,2.64,1.84,.76,3.93,1.62,3.93,5.39V50.13c0,3.75-2.08,4.61-3.92,5.37-1.34,.56-2.6,1.08-2.6,2.66v.24h52.35v-12.4h-.24c-1.79,0-2.5,1.19-3.48,2.82Z"/><path class="cls-1" d="M113.22,55.74c-.82-.49-1.75-1.04-2.43-2.33-.12-.23-.25-.46-.38-.69-.64-1.15-1.36-2.46-2.54-5.51L90.49,2.72c-.5-1.41-1.07-1.86-2.31-1.86h-6.5l-19.52,47.39c-2.28,5.51-5.52,6.58-7.89,7.37-1.57,.52-2.81,.93-2.81,2.54v.24h16.64v-.24c0-1.54-1.11-2.05-2.18-2.55-1.2-.55-2.45-1.12-2.45-3.21,0-.82,.19-1.84,1.12-4.35l3.88-9.64c.61-1.68,.99-2.11,3.01-2.11,.03,0,3.2-.29,10.65-.29,6.97,0,10.77,.22,11.55,.28,5.56,14.11,6.07,15.48,6.07,16.3,0,1.86-1.32,2.35-2.72,2.87-1.31,.49-2.67,.99-2.67,2.7v.24h20.62v-.24c0-1.37-.85-1.88-1.75-2.41Zm-20.19-21.52c-1.03,.07-4.52,.26-10.9,.26-7.08,0-10.62-.28-10.64-.28-.72-.09-.83-.54-.83-.79,0-.53,.18-.96,.36-1.33l11.01-26.73,10.99,28.88Z"/><path class="cls-1" d="M175.68,55.1c-2.74-.91-2.89-1.56-4.66-9.56-2.12-9.79-8.02-12.96-17.47-14.69,12.05-2.36,18.41-7.5,18.41-14.92,0-9.62-9.59-15.36-25.65-15.36-.46,0-1.15,.02-2.14,.06-2.51,.08-6.7,.22-13.84,.22h-8.74v.24c0,1.58,1.26,2.1,2.59,2.65,1.84,.76,3.92,1.62,3.92,5.38V50.13c0,3.75-2.08,4.62-3.92,5.38-1.33,.55-2.59,1.07-2.59,2.65v.24h22.2v-.24c0-1.58-1.26-2.1-2.59-2.65-1.84-.76-3.92-1.62-3.92-5.38v-16.44c0-.94,.3-1.56,1.77-1.75,1.53-.19,3.55-.28,6.02-.28h3.32c7.4,0,9.97,2.31,11.94,10.76,.19,.86,1.89,8.22,1.89,8.23,1.45,5.81,3.29,7.75,11.29,7.75h5.45v-.24c0-1.87-1.25-2.38-3.29-3.06Zm-38.38-27.85V2.45s4.37-.45,8.74-.45c10.5,0,16.29,4.91,16.29,13.83s-4.03,14.13-13.75,14.13c-2.54,0-6.08,0-9.16-.37-1.76-.21-2.11-.48-2.12-2.34Z"/><path class="cls-1" d="M435.81,55.1c-2.74-.91-2.89-1.56-4.65-9.56-2.12-9.79-8.02-12.96-17.47-14.69,12.05-2.36,18.41-7.5,18.41-14.92,0-9.62-9.59-15.36-25.65-15.36-.46,0-1.15,.02-2.14,.06-2.51,.08-6.7,.22-13.84,.22h-8.74v.24c0,1.58,1.26,2.1,2.59,2.65,1.84,.76,3.92,1.62,3.92,5.38V50.13c0,3.75-2.08,4.62-3.92,5.38-1.33,.55-2.59,1.07-2.59,2.65v.24h22.2v-.24c0-1.58-1.26-2.1-2.59-2.65-1.84-.76-3.92-1.62-3.92-5.38v-16.44c0-.94,.3-1.56,1.77-1.75,1.53-.19,3.55-.28,6.02-.28h3.32c7.4,0,9.97,2.31,11.94,10.76,.19,.86,1.89,8.22,1.89,8.23,1.45,5.81,3.29,7.75,11.29,7.75h5.44v-.24c0-1.87-1.25-2.38-3.29-3.06Zm-38.38-27.85V2.45s4.38-.45,8.74-.45c10.5,0,16.29,4.91,16.29,13.83s-4.03,14.13-13.75,14.13c-2.54,0-6.08,0-9.16-.37-1.76-.21-2.12-.48-2.12-2.34Z"/><path class="cls-1" d="M586.62,0c-16.99,0-28.4,11.91-28.4,29.64s11.41,29.72,28.4,29.72c7.89,0,15.02-2.71,20.06-7.62,5.46-5.32,8.34-12.96,8.34-22.1,0-20.47-14.27-29.64-28.4-29.64Zm18.46,29.64c0,19.17-5.87,28.09-18.46,28.09s-18.46-9.19-18.46-28.09,6.04-28.02,18.46-28.02,18.46,8.9,18.46,28.02Z"/><path class="cls-1" d="M250.58,1.92l-1.96,5.6c-.25,.61-.86,.83-1.2,.83-1.4,0-1.3-1.96-2.78-4-1.48-2.04-3.21-2.9-5.89-2.9-4.97,0-8.45,3.05-8.45,7.41,0,3.28,1.57,5.31,10.5,7.99,7.43,2.25,11.04,6.34,11.04,12.51s-4.37,12.81-14.13,12.81c-2.4,0-14.35-.35-14.35-7.39,0-2.54,2.64-4.8,2.75-4.89l.3-.25,.09,.39c1.6,6.89,5.51,10.54,11.29,10.54,5.19,0,8.16-2.87,8.16-7.88,0-4.73-2.5-6.3-9.56-8.37-4.5-1.34-11.98-3.57-11.98-12.14C224.42,4.79,230.41,.02,239.68,.02c4.7,0,9.29,1.26,10.89,1.9Z"/><path class="cls-1" d="M668.04,1.1c0,1.58,1.26,2.1,2.6,2.65,1.84,.76,3.93,1.62,3.93,5.38V47.7L641.07,2.65c-1.26-1.66-2.07-1.79-2.93-1.79h-14.99v.24c0,1.58,1.26,2.1,2.6,2.65,1.84,.76,3.93,1.62,3.93,5.38V50.13c0,3.76-2.09,4.62-3.93,5.38-1.34,.55-2.6,1.08-2.6,2.66v.24h15.8v-.24c0-1.58-1.26-2.1-2.6-2.66-1.84-.76-3.92-1.63-3.92-5.38V5.71l35.47,48.25c2.45,3.4,3.82,4.45,7.56,4.45h1.95V9.13c0-3.76,2.08-4.62,3.92-5.38,1.33-.55,2.59-1.07,2.59-2.65v-.24h-15.88v.24Z"/><path class="cls-1" d="M293.98,28.84c12.4-2.67,17.95-7.06,17.95-14.13,0-9.12-9.62-14.14-27.08-14.14-1.86,0-3.72,.05-5.88,.11-2.94,.08-6.6,.17-11.59,.17h-6.95v.24c0,1.58,1.26,2.1,2.59,2.65,1.84,.76,3.92,1.63,3.92,5.39V50.13c0,3.75-2.08,4.62-3.92,5.38-1.33,.55-2.59,1.07-2.59,2.65v.24h6.67c4.93,0,8.32,.17,11.32,.33,2.46,.13,4.58,.23,7.1,.23,23.71,0,28.69-8.25,28.69-15.17,0-7.88-6.62-12.78-20.22-14.96Zm-17.85-3.65V2.54c.93-.11,4.81-.54,8.64-.54,11.68,0,17.61,4.3,17.61,12.8,0,8-5.32,13.18-13.55,13.18h-5.19c-6.92,0-7.5-.68-7.5-2.79Zm9.49,32.26c-7.01,0-9.49-1.59-9.49-6.09v-19.08c0-2.04,.3-2.69,6.56-2.69h5.29c7.6,0,16.47,3.62,16.47,13.84,0,9.04-6.69,14.02-18.84,14.02Z"/><path class="cls-1" d="M473.11,59.44c6.64,0,10.41-2,13.45-3.61,1.88-1.01,2.68-1.3,3.56-1.3s1.68,.55,2.7,1.91c1.4,1.73,1.93,1.96,3.26,1.96h.24V29.81c0-1.37-.67-2.04-2.04-2.04h-7.23v21.59c0,6.61-9.24,8.36-14.12,8.36-12.38,0-18.66-9.42-18.66-28.01s6.34-28,18.84-28c8.7,0,12.86,4.62,15.77,9.14,.46,.73,.91,1.34,1.81,1.34,.71,0,1.34-.57,1.65-1.49l2.23-7.21-.21-.08c-4.22-1.6-13.35-3.31-20.21-3.31-18.51,0-30.01,11.35-30.01,29.62,0,22.68,16.32,29.72,28.96,29.72Z"/></svg>