<?xml version="1.0" encoding="UTF-8"?>
<svg id="Layer" xmlns="http://www.w3.org/2000/svg" viewBox="0 0 1858 1727.18">
  <defs>
    <style>
      .cls-1 {
        fill: none;
        stroke: #000;
        stroke-miterlimit: 10;
        stroke-width: 5px;
      }
    </style>
  </defs>
  <path class="cls-1" d="M156.25,72.27C47.37,99.92-19.61,221.53,9.19,325.99c17.77,63.81,70.94,100.91,117.89,151.86,52.33,56.79,75.99,129.58,73.93,205.81-1,36.97-9.01,105.45,6.99,132.88,111.9,191.83,291.19-28.14,396.64-60.95,95.34-29.65,178.29,98.08,105.9,167.85-92.26,88.94-313.24,117.16-268.76,288.74,20.98,80.93,135.88,96.91,204.82,168.85,98.98,103.28,43.96,253.77,193.98,324.08,89.47,41.94,202.59,15.18,260.75-68.09,37.5-55.2,26.47-107.79,57.81-174.07,29.02-61.37,90.92-127.89,159.86-155.86,87.58-35.54,119.89-101.91,96.97-176.7-37.56-122.56-343.53-163.63-296.66-293.35,51.82-143.4,164.72-67.47,272.62,.47,43.44,27.35,91.92,68.94,158.48,50.1,67.34-19.05,112.05-65.8,109.28-134.03-1.51-37.09-5.76-112.68,3-143.87,34.6-123.26,108.9-152.86,164.85-237.79,54.64-82.94,25-203.54-52.84-264.21-142.98-111.45-235.49,25.95-406.6-20.4-100.05-27.1-128.53-94.54-212.32-83.65-143.05,18.6-127.23,157.36-124.53,273.35,1.58,67.92,7.91,133.54-68.94,167.85-34.08,15.22-65.94,5-94.78-16.18-37.54-27.56-44.23-73.36-44.1-117.7,.41-133.15,39.61-316.38-158.57-308.23-12.27,.5-34.25,10.5-44.24,17.49-78.59,55.01-161.85,97.91-253.22,83.1-69.49-11.26-139.9-56.9-211.17-31.1Z"/>
</svg>